<svg xmlns="http://www.w3.org/2000/svg" viewBox="0 0 128 128">
  <g style="isolation:isolate">
    <path fill="#92c020"
      d="M69.8 42.6C59.3 39.9 47.5 32.2 36.5 38s-18.1 46.4 12 61 53.5-20.9 52.3-37.9c-.9-11.3-19.6-15.6-31.2-18.5Z" />
    <path fill="#9d8ca2"
      d="M53.4 38c5 2.8 5.4 7.3 14.1 12.7s17.1 1.4 19.2 1.2-1.5-3.7-13.6-6.6a77.4 77.4 0 0 1-19.7-7.4Z"
      opacity=".4" style="mix-blend-mode:multiply" />
    <path fill="#9d8ca2" d="M62.8 47c-1-4.2 14.3 3.5 15.3 4.3s-7 3.8-15.3-4.3Z" opacity=".5"
      style="mix-blend-mode:multiply" />
    <path fill="#9d8ca2"
      d="M28.1 67c4.6-6.8 21.5 21.6 35 26.4s20.5-3.8 23-3.7-13.7 19-35.5 9.2S27.7 67.6 28.1 67Z"
      opacity=".4" style="mix-blend-mode:multiply" />
    <path fill="#ffd8ff"
      d="M55.4 43.8c-17-3.5-19.2 40.3 8.8 47S101 63 97 57.5s-13.4.3-24.8-2.9-13.1-10-16.8-10.7Z"
      opacity=".8" style="mix-blend-mode:soft-light" />
    <path fill="#ffd8ff" d="M32.1 51.8c-.4 6.1 11.1-3.3 15.6-7.7s-6.3-6.8-10.6-4.7-4.9 10.2-5 12.4Z"
      style="mix-blend-mode:soft-light" />
    <path fill="#ffd8ff" d="M30 79c1.7-3.3 24 21.4 24.8 22S38 98 30 79Z" opacity=".5"
      style="mix-blend-mode:soft-light" />
    <path fill="#9d8ca2"
      d="M68 44c-1.4.2-8.1-5.9-16.8-7.2s-17.6 8.2-18 10 3.9-8.2 16-8.2c8.4 0-3.7 2.6-11.5 14.1s1 40 2.6 40.7S29.5 67 37.8 53.5s20-10 21-9-14 7.8-17.5 22.9.3 27.3.6 27.7-4.3-20.5 1.9-32.3S60 49.2 71.1 54s9-2.5 17.4-.6c15.8 3.5 7.3 22.3 5.5 27s7.6-10.4 3.9-20.8-16.3-13.3-21.7-14a33.2 33.2 0 0 1-8.2-1.8Z"
      opacity=".4" style="mix-blend-mode:multiply" />
    <path fill="#ffd8ff" d="M78.8 45.4c-1.3 0 7.1 3.5 9 5.8s5.9 2.2 7.5 2.3-5.7-6-16.5-8Z"
      opacity=".8" style="mix-blend-mode:soft-light" />
    <path fill="#ffd8ff" d="M68 53c-8.6-1.8-.6 22 10 23.2s20.3-18.4 14.5-22-15.9.7-24.5-1.2Z"
      opacity=".8" style="mix-blend-mode:soft-light" />
    <path fill="#fff" d="M77.3 63.8c-3.6-.8-.9 6.2 1 5.7s5.9-4.3-1-5.8Z" />
    <path fill="#9d8ca2" d="M100.8 64c-1.8-2-5.2 13.2-9.5 19.7L87.1 90s12.2-10.3 13.8-26Z"
      opacity=".2" style="mix-blend-mode:multiply" />
    <path fill="#fff" d="M78.6 46.5c-.8 0 .5 2 1.6 2.3a4.4 4.4 0 0 0 3.3-.2c.5-.4-2.5-2-4.9-2Z" />
    <path fill="#8a791a"
      d="M84 32.6c-.8 3-4 5.6-7.7 9.7l-.9 1c-4 4.6-3.8 7.8-3.8 7.8s-2.7 2-3.4-2.3c.8.7 5-8.3 7.2-14l1.1-3c1.4-4.4 3.8-6.2 5-6.1s3.3 3.7 2.5 7Z" />
    <path fill="#865e00"
      d="M84 32.6c-.8 3-4 5.6-7.7 9.7-1.2-.5-1.4-4-.9-7.4l1.1-3c1.4-4.4 3.8-6.3 5-6.2s3.3 3.7 2.5 7Z" />
    <path fill="#b59f00" d="M81.5 25.7c-3-1.3-2.2 8.3-1 9.5s3.6-2.3 3.6-3.5-.6-5.1-2.6-6Z" />
    <path fill="#912774" d="M68 49.3a39.4 39.4 0 0 0 2.6-3.9c1-1.8 1.2 4.5.6 5.6s-2.7 1.2-3.2-1.8Z"
      opacity=".3" style="mix-blend-mode:multiply" />
    <path fill="#9d8ca2"
      d="M32.3 64.8c-3.7-4.9 16.4-19.8 19-18.2 14.4 8.7 15.2 32 11.4 37.8S38.3 72.5 32.3 64.8Z"
      opacity=".2" style="mix-blend-mode:multiply" />
    <path fill="#904f56"
      d="M85.1 82.6c1.5-1 1.6-1.8.3-2.2s-2.8 1.3-2.2 2a1.5 1.5 0 0 0 2 .2ZM65.4 95.7c1.5 0 .7-2-.2-2s-2.1 1.9.2 2ZM36.6 73.2c-1.2 1.5-3.3-1.4-1.2-3.4s2.2 2 1.2 3.4Zm.1 6.4c.7.3.3-1.5-.2-1.3s-.2 1.2.2 1.3ZM39.2 57c0 .7 1.5-.6 1-.9s-1 .4-1 .8ZM57 66.9c.5.9-1.4 1.5-1.8.7s.8-3.3 1.9-.7Zm-4-5.4c1.2.6.3 3-.7 2.6s-.9-3.3.8-2.6Zm-9.2-12.3c.4 1.3-2 2.3-2.5 1.3s1.9-3 2.5-1.3Z"
      opacity=".4" style="mix-blend-mode:multiply" />
    <path fill="#fff" d="M36.9 46.6c-1.1 1.9 1.3 2 2.2-.2s-1.1-1.6-2.2.2Z" />
    <path fill="#9d8ca2"
      d="M99.5 66.5c-.1-3.7-8.1 5.2-19.6 11.3s-14 13.7-6.7 15.6 26.6-11.1 26.3-26.9Z" opacity=".2"
      style="mix-blend-mode:multiply" />
  </g>
</svg>