<svg xmlns="http://www.w3.org/2000/svg" viewBox="0 0 128 128">
  <defs>
    <linearGradient id="ed7cb1de-7ff8-4d89-8cba-f701a739c701" x1="63.5" x2="116.8" y1="-156.7"
      y2="-224.8"
      gradientTransform="rotate(9 -1531.1 -244.6)" gradientUnits="userSpaceOnUse">
      <stop offset="0" stop-color="#ffb800" />
      <stop offset=".4" stop-color="#ffb500" />
      <stop offset=".7" stop-color="#ffac00" />
      <stop offset=".8" stop-color="#ffac00" />
      <stop offset=".8" stop-color="#f5ab00" />
      <stop offset=".9" stop-color="#d9a800" />
      <stop offset="1" stop-color="#ada300" />
      <stop offset="1" stop-color="#a7a200" />
    </linearGradient>
  </defs>
  <g data-name="layer1" style="isolation:isolate">
    <path fill="url(#ed7cb1de-7ff8-4d89-8cba-f701a739c701)"
      d="M100.3 62.4v.8a22.7 22.7 0 0 1-.3 3.2c-4.1 21.9-31.6 44.9-52.8 42.1a33.5 33.5 0 0 1-10.9-3.9 49.6 49.6 0 0 1-4.3-2.5l-1.9-1.3-1.3-1.1a1 1 0 0 1-.1-.2c-1.7-4.9.4-7.9.4-7.9h.2a51.8 51.8 0 0 0 13.5-4.5c15-9.8 28-24 26.5-43-.8-9.9-4.7-20.4-4.7-20.4s.4-3.4 1.5-4.2 9 1.5 8.8 3-2.3 12.3 1.8 16a17.6 17.6 0 0 0 2.4 1.5c8.6 5.3 19.5 11.2 21.2 22.4Z" />
    <path fill="#ec8292"
      d="M36.3 104.7a42.6 42.6 0 0 1-7.5-5v-.2c-.4-1-1.8-5.2.3-7.9h.3c2.5-.5 12.8-4.2 13.5-4.5-.8.5-7.4 3.8-7.8 5.5s-5 5-2.8 8a16 16 0 0 0 4 4Z"
      opacity=".3" style="mix-blend-mode:multiply" />
    <path fill="#5e294a"
      d="M30 91.4a11.5 11.5 0 0 1 3.8 3.1c1.3 1.8-4.4 5.5-4.4 5.5l-.6-.4a73.9 73.9 0 0 0 .3-8Z" />
    <path fill="#7a2e4a" d="M29.1 91.6s6.6 1.5-.3 8a7.4 7.4 0 0 1 .3-8Z" />
    <path fill="#ffd8ff"
      d="M33 94.5c12 2.6 34-6.4 43-20.3 6-9.5 7.1-29-2.6-34.9-3.1-1.9-4 5.7-4 5.7s1.3 10.2-6 22.6a55.8 55.8 0 0 1-32.2 23.5s.6 3.2 1.9 3.4Z"
      opacity=".5" style="mix-blend-mode:soft-light" />
    <path fill="#e79092"
      d="M77.5 39c-3.5-1.2 5.5 12.6 5 21.4C82 73.4 68 87.7 58.3 90c-1.4.3-2.3.6-1.8 1.6 14.9.6 37.4-9.6 40.7-24.1C99.8 55.7 86.3 41.9 77.5 39Z"
      opacity=".2" style="mix-blend-mode:multiply" />
    <path fill="#e79092"
      d="M28.8 99.6c1.4-1.4 1.9-4.7 8.3-5.2s18-2.6 23-5.2 8 8.9 3.6 15-18.4 4.1-21.2 3.1-13.7-7.7-13.7-7.7Z"
      opacity=".2" style="mix-blend-mode:multiply" />
    <path fill="#9d36a2"
      d="M100.3 62.4c-.1-.3-1.4-8.2-10-14.2-6.1-4.3-10.8.8-13.6-5.6s-3.4-10-3.6-13c-.2-4.3 1.2-8 1.9-7.2-.2 1.5-2.3 12.9 1.8 16 7.7 5.8 22.8 12 23.5 24Z"
      opacity=".4" style="mix-blend-mode:multiply" />
    <path fill="#9d36a2" d="M76.7 42.6c2.8 4.4-.3-3-1.4-6.4s-1.2-10.4-1.1-11.3-3.5 4.8 2.5 17.7Z"
      opacity=".4" style="mix-blend-mode:multiply" />
    <path fill="#ffd8ff"
      d="M64.7 23.6c1.5 4.4 7.3 1.2 9-.8s-6.8-4.5-7.5-3.3a18.5 18.5 0 0 0-1.5 4.1Z" opacity=".5"
      style="mix-blend-mode:soft-light" />
    <path fill="#de77a2"
      d="M65.7 26.7C66 26 71 26 73 24.3s.2 4.5 1.7 9.7 5.4 5.8 5.5 6.7-2.4 1.6-2.2 4-8 .9-8.8-3.7-3.5-14.3-3.5-14.3Z"
      opacity=".3" style="mix-blend-mode:multiply" />
    <path fill="#ffe28b"
      d="M42.6 93.4S69.4 85 76.8 72.7a30 30 0 0 0 .7-28.8s8 13.2 3.6 24.8c-9.1 24-38.5 24.7-38.5 24.7Z" />
    <path fill="#fff" d="M48 92.8s4.4-2.8 6.8-2.8 2.3.5 2.2.6-7.6 2.4-9 2.2Z" />
    <path fill="#e79092"
      d="M100.3 62.4v.8a41 41 0 0 1-8.7 21.3c-9.4 12.4-28.6 26.4-44.4 24a34.9 34.9 0 0 1-10.9-3.8 47 47 0 0 1-6.1-4h.3c-.7-1.2 4.9-5.2 7.3-5.6 14-2.3 30.4-6.7 39.7-18.8 8.5-11 3.2-24.3-.4-35.3-.2-.6.6-1 2-1 2.4 1.5 6 3.5 9.6 6 5.5 4 11.2 9.3 11.5 16.4Z"
      opacity=".6" style="mix-blend-mode:multiply" />
    <path fill="#9d36a2"
      d="m65.1 24.8 1.2 3.7s-.2-1.5.2-2 5.6 7.8 7.6 8a34 34 0 0 1 .5-7.3l.4-4.8a5.1 5.1 0 0 0-2.6 1.6c-1.1 1.3-5.4 2.5-7.6-.1Z"
      opacity=".6" style="mix-blend-mode:multiply" />
    <path fill="#ffd8ff"
      d="M55 78.6C65.5 67 66.6 80 67.3 81.7S81.8 62.5 81 56.4C79.8 49 73 44.6 71.5 45s-1.9 10.3-6 18.6a67.6 67.6 0 0 1-10.6 15Z"
      opacity=".5" style="mix-blend-mode:soft-light" />
    <path fill="#ffb8ff"
      d="M100 66.4c-4 22-31.5 45-52.8 42.2a33.5 33.5 0 0 1-10.8-4c-1.7-.8-3.1-1.7-4.3-2.5 10 3.3 21.7 5.3 31.6 2A57.4 57.4 0 0 0 100 66.4Z"
      style="mix-blend-mode:soft-light" />
    <path fill="#ffb8ff"
      d="M39.3 105.8c-2.9-2.4 11.9 0 14.2.3s-1.4 2.5-5.6 2.2a27.6 27.6 0 0 1-8.6-2.5Z"
      style="mix-blend-mode:soft-light" />
    <path fill="#9d36a2"
      d="M100.3 62.4v.8a41 41 0 0 1-8.7 21.3c.2-.4 8-11.3 6.8-21.6-.8-7.5-9.7-16.9-9.7-16.9 5.5 4 11.2 9.3 11.5 16.4Z"
      opacity=".6" style="mix-blend-mode:multiply" />
    <path fill="#fff" d="M70.3 73c-2.5-.5 1.2-4 2.4-3.6s-.7 4-2.4 3.7Z" />
    <g fill="#c62792" opacity=".4" style="mix-blend-mode:multiply">
      <path
        d="M90.8 48.5c-1-1.1-1.7-1-1.8 0s1.4 2 1.8 1.5a1.2 1.2 0 0 0 0-1.5ZM72.3 49.8c-1.2-.4-1 1.4-.3 1.6s2.1-1 .3-1.6ZM90.1 76c1.2-1 2.3 1.8.2 3s-1.3-2.2-.2-3ZM91.3 70.9c-.4-.4-.5 1.1 0 1s.3-.8 0-1ZM84.7 88.3c0-.6-1.3.1-1 .5s1-.1 1-.5ZM56.2 95.4c0-.8 1.5-.9 1.6-.2s-1.2 2.5-1.6.2ZM74.8 84c0-1 2-1.3 2.2-.4s-2 2-2.2.5ZM79.5 93.5c0-1 2-1.4 2.2-.5s-2 2-2.2.5ZM41.8 91.2c-.1-1.1 2-1.4 2.2-.5s-2.1 2-2.2.5Z" />
    </g>
  </g>
</svg>