<svg xmlns="http://www.w3.org/2000/svg" viewBox="0 0 128 128">
  <g style="isolation:isolate">
    <path fill="#46328a"
      d="M99.7 64.8a34.1 34.1 0 0 1-34.2 34.1c-18.8 0-37.2-14.3-37.2-33.1A38.3 38.3 0 0 1 29 59c2.8-16.2 15.5-30 32.2-30 20.1 0 38.6 16.8 38.6 35.7Z" />
    <path fill="#96c9ff"
      d="M56.3 40.7c2.3-9-14 2.7-14.6 15.7s6.4 17.2 13.9 21S64.3 63.7 69.3 64 65 83.7 75.4 86.9 96.6 76.6 98 68.5s-8.6-7.7-9.6-11 4.4 1.4 7.5 1-2.3-10.8-4.8-12.2 2.8 2.8-.3 5-14.7 11.2-24 7-11.2-14.9-10.5-17.6Z"
      opacity=".5" style="mix-blend-mode:soft-light" />
    <path fill="#41139e"
      d="M91.6 51c-8 2.1-12.3 9.9-16.8 9.4S62.8 49.8 58.3 48s-1-6.1-.7-9.1-.6-3.3-.7-3.7.7-.8.7-.8 8.9-1.2 10-1.5 14.6 2.8 15.5 4.9S91.6 51 91.6 51Z" />
    <path fill="#474798"
      d="M75.5 60.4c-5.2-.7-1.3-8.2-10.6-11.3s-4.7-3.4-4.5-8.4-4.1-6-2.3-6.5 3.8.2 5.1-1.2 7.8.7 14.6 1 6.1 7.6 12.5 14c5.7 5.5-4.7 2.4-9.2 5s-3.1 7.7-5.6 7.4Z" />
    <path fill="#483c90"
      d="M84.9 50.5a9.6 9.6 0 0 0-4.5.9c-5.2 2.4-5.4 8.6-8.7 2-4-8-12-5-9.7-11.4 1-2.6-1.4-5.8-.7-6 4.7-2-.8-3.9 5.6-2 7.6 2 7.3-.2 11.3 1.2 2.5 1 2.2 1.4 5.7 7s10.7 8.6 1 8.3Z" />
    <path fill="#912774"
      d="M84.9 50.5a9.6 9.6 0 0 0-4.5.9c2-7.3-12-17-17-10.1 3.3-5.3-3-9.2 3.5-7.4 7.5 2.2 7.2-.1 11.3 1.3 2.5 1 2.2 1.4 5.6 7s10.8 8.6 1 8.3Z"
      opacity=".5" style="mix-blend-mode:multiply" />
    <path fill="#912774" d="M75.8 50.1c-4.5 1-6 0-8-5.5s8.5 1 9.9 3-1.9 2.5-1.9 2.5Z" opacity=".5"
      style="mix-blend-mode:multiply" />
    <path fill="#912774" d="M69.3 45.3c0-2.8 5-.7 6.4 3.2s-6.6.6-6.4-3.3Z" opacity=".5"
      style="mix-blend-mode:multiply" />
    <path fill="#594aff" d="M71.8 45.6c-1.8 0-1.2 3.5 1.6 4s1.6-4.2-1.6-4Z" />
    <path fill="#912774"
      d="M61.2 36.3c.5-1.7 2.5.7 2.5 2.8s-.7 3.2-1.2 3.2-.2-2-.6-3.7a14.6 14.6 0 0 0-.7-2.3Z"
      opacity=".5" style="mix-blend-mode:multiply" />
    <path fill="#912774" d="M81 57c-4.3 2.6-.8-3.8 2-4.6a13 13 0 0 1 6.7-.5c1 .3-2.9 1.4-8.8 5.1Z"
      opacity=".3" style="mix-blend-mode:multiply" />
    <path fill="#912774"
      d="M60.5 49.4C60 48 67.3 49 69.7 52s1.5 6 2 7-11.2-9.6-11.2-9.6Zm-4.1-3c-.6-2.3 3.7-2.8 4-6.1s-2-4.4-3.2-4.6 1.5.8 0 4.4a12.8 12.8 0 0 0-.9 6.3Z"
      opacity=".5" style="mix-blend-mode:multiply" />
    <path fill="#b3acff"
      d="M76.6 59.6c-1.6 1.7-3.5-.9-3.4-2s1.6-.7 2.8-2 1.2-3.4 5.1-4.3 0 .9-2.1 3.6-2 4.2-2.4 4.7ZM61.8 42c.2-1.7-2.3 1.6-2.4 3.7s3.2 2.4 5.8 3.4.2-.6-2-2.8-1.7-2.5-1.4-4.4Zm-.6-5c-.2 1.2-2.7-2-3.2-2.3s1-.4 3-.7 1.5-.9 2.5-1.3 2.6-.1 5.7.4 1.7 1.6-.1 1.4-5.2-1.4-5.5-1.3.2 1.2-.9 1.9-1.6.3-1.8.7.3.7.3 1.1Zm21.1-1c-3.9-1.9.8 5.4 2.3 7.3s3.5 3.3 3.8 3-3-5.6-4.1-7.5a27.3 27.3 0 0 0-2-2.8Z"
      opacity=".8" style="mix-blend-mode:soft-light" />
    <path fill="#912774"
      d="M31.7 74.5c-2-7.5-.5-25.6 5.5-28.1s-2.9 28.5 33.6 40.9c18.6 6.3 25.4-17.7 27-17.9s-5 25.3-33.5 24.3-32.6-19.2-32.6-19.2Z"
      opacity=".3" style="mix-blend-mode:multiply" />
    <path fill="#b3acff"
      d="M52.3 41.5C44 36.1 38 58.4 49.6 73.8s27.3 10 33.2 4-4.2-12.4-12.5-19.7-12-8.5-14-11.7a22.5 22.5 0 0 0-4-4.9Z"
      opacity=".3" style="mix-blend-mode:soft-light" />
    <path fill="#f7f"
      d="M97.6 76.5a34.1 34.1 0 0 1-32 22.4c-19 0-37.3-14.3-37.3-33.1A38.3 38.3 0 0 1 29 59c2.2-7.9-2.6 11.7 10.3 26.3s40.5 11.4 54.4-5.2a15.4 15.4 0 0 1 4-3.7Z"
      opacity=".6" style="mix-blend-mode:soft-light" />
    <path fill="#f7f" d="M65 98.1c-3.5-1.2 6.8-4.9 13.5-5s-1.6 5.4-13.5 5Z" opacity=".6"
      style="mix-blend-mode:soft-light" />
    <path fill="#912774"
      d="M40.8 54.6c-7.3-6.3-8 17.2-1.7 29.2S62.4 94 69.3 93.1 58.7 83 49.6 73.8 43 56.5 40.8 54.6Zm50.8-10.8c-3-1.5 7.9 20.5 7.1 26.2s5.8-12.2-7-26.3Z"
      opacity=".3" style="mix-blend-mode:multiply" />
    <path fill="#b3acff"
      d="M84.6 59.7c-.5 2.7 3.4 11 3.8 16s11.4-1.6 9.2-10.2-3-10.7-7.9-10-4.6 1.6-5.1 4.2Z"
      opacity=".3" style="mix-blend-mode:soft-light" />
    <path fill="#b3acff"
      d="M94 66.3c-1.4 3.7-5.3-.7-3.8-4.6s4.9 1.4 3.7 4.6ZM59.2 56c-6-1.8-10 5-6 11.7 4.3 7.6 10-1.5 10-4.3 0-4.2-1.9-6.8-4-7.4Z"
      style="mix-blend-mode:soft-light" />
    <path fill="#ffceff" d="M30.5 52.9s4.7-9.1 10.4-12.2 7.7 0 16.5-7.2-8-2-8-2-12.1 3.7-19 21.4Z"
      opacity=".6" style="mix-blend-mode:soft-light" />
    <path fill="#96c9ff"
      d="M35.8 77.4c-5.6-16.4 1-14.6 4.8-12.3 4.6 3 5.4 13.9 10.3 20.4s-11.1 3.3-15-8Z" opacity=".8"
      style="mix-blend-mode:soft-light" />
  </g>
</svg>