<svg xmlns="http://www.w3.org/2000/svg" viewBox="0 0 128 128">
  <g style="isolation:isolate">
    <path fill="#c91517"
      d="m95 89.7-1.3 2.9a27.4 27.4 0 0 1-4.7 6.7l-1.6 1.5a24.3 24.3 0 0 1-2.2 1.8 36.8 36.8 0 0 1-29.4 4.7c-7.7-2.2-20-9.5-23.9-22a27.4 27.4 0 0 1-1-6.8 27.2 27.2 0 0 1 0-3.2C32.3 56.5 45.6 49.7 56.5 53c6.8 2.1 9.1 5.4 12.5 6.3s7.1-.7 14.1 1c10.5 2.6 18 14 11.9 29.3Z" />
    <path fill="#912774" d="M77.2 63.5c5.8 1.5 0 7.2-13.8 2.4-10-3.4-3.6-8.1.2-7.7s4 2.8 13.6 5.3Z"
      opacity=".3" style="mix-blend-mode:multiply" />
    <path fill="#912774"
      d="M60.4 64.6c-2.5-1 7.5-2 12.8.6s-.6 4.5-12.8-.6Zm-13.8.9c-10.2-9.4-18.1 6.2-12.1 20 7.2 16.6 33.1 25.3 45 17.3 8.2-5.4 12.8-21.2 8.8-24.6-2.5-2-10 5.8-25.1.6S49.6 68.3 46.6 65.5Z"
      opacity=".3" style="mix-blend-mode:multiply" />
    <path fill="#ffd8ff"
      d="M58.2 56.6c-.6-5-12.8-3.3-15.2 1.8s10.6 17.6 22.3 21S89 74.2 92 69.4s-8.2-10-12.7-8.8 1.6-.2-.7 6-16.8 1.4-21.9-4.2 1.9-3.2 1.6-5.8Z"
      opacity=".5" style="mix-blend-mode:soft-light" />
    <path fill="#fff" d="M58.6 59.6C56 63 64 61 71.2 63.6s7.6 2 7.6.7-3.4 0-8.7-3.6-9.5-3.8-11.5-1Z"
      style="mix-blend-mode:soft-light" />
    <path fill="#ffefff"
      d="M89 99.3a20 20 0 0 0-1.6 1.5c-9.6 8.7-23.9 8.6-31.6 6.5-9-2.5-24.4-12.1-25-28.8C33.7 64 52.3 90 60.7 99.7s26.4-.9 31.8-8.4c2.2-3 2.8-3 2.5-1.6-.5 2-3.2 7.2-6 9.6Z"
      opacity=".5" style="mix-blend-mode:soft-light" />
    <path fill="#a85592"
      d="M87 77.9C82.5 76.6 74.4 84 64.8 87s-7.2 13.4 2.8 16.5 18.1-7.6 21.3-15-.1-10.1-1.9-10.6Zm-36.2-6.6C43 63.5 43.4 60.5 39.6 62s-7.8 6-.6 13.5 17.6 6.2 19.6 4.6-4.9-5.8-7.9-8.8Z"
      opacity=".2" style="mix-blend-mode:multiply" />
    <path fill="#f7f"
      d="M38 96c.2-1.6 17.3 11.8 32 10.9S91.6 93 94.3 89s-5.3 11.7-10.6 14.5C75.9 107.7 59 116 38 96Z"
      style="mix-blend-mode:soft-light" />
    <path fill="#fff"
      d="M51 59.3c-5.6-.4-1 6.4 4.5 10.8s11.4 2.8 15.8 4.4 4.8-1.6 4.6-2.8-1.3 1.5-9.4-.5-11-11.6-15.6-11.9Zm31.4 7.9c-2 .1-2.3 1.8-3.2 3s4.7 1.4 6-1.1-1.5-2-2.8-1.9Z" />
    <path fill="#fff"
      d="M60 61.3c-4.2-.7.7-3.3 5-2.5a13.8 13.8 0 0 1 6.6 3.6c.7.8-6.7-.3-11.6-1Zm13.3 1.5c-1.4 0 0 1.6 1.1 1.7s1.8-.3 1.7-.8-2-.8-2.8-.9Zm20.2 14c-3-.2-2 9.3-3.3 11.9s3.7-1.8 4.6-6-.5-5.8-1.3-5.9Z"
      style="mix-blend-mode:soft-light" />
    <path fill="#fff" d="M35.7 76.8c-2.8-.7-3.1 5.7 1.6 11.9s12 5.6 13.7 4.5S44.2 79 35.7 76.8Z"
      opacity=".5" style="mix-blend-mode:soft-light" />
    <path fill="#fff" d="M49.3 54.4c-.9.7 4 1.8 6.4 2s3.6-.2 4-.6-5.8-4.9-10.5-1.4Z" />
    <path fill="#a85592"
      d="m95 89.7-1.3 2.9a27.4 27.4 0 0 1-4.7 6.7l-1.6 1.5a24.3 24.3 0 0 1-2.2 1.8s10.3-10.4 10.1-24.3S88.1 63 78.1 61.8 67 58.2 56.3 53.7s-29 13.6-24.4 31.5a27.4 27.4 0 0 1-1-6.7 27.2 27.2 0 0 1 0-3.2C32.3 56.5 45.6 49.7 56.5 53c6.8 2.1 9.1 5.4 12.5 6.3s7.1-.7 14.1 1c10.5 2.6 18 14 11.9 29.3Z"
      opacity=".2" style="mix-blend-mode:multiply" />
    <path fill="#ffd8ff"
      d="M53.5 58.6c-7.1-.6-9.1-1.3-6.8 5s7.3 15 21.9 15.9 19.3-8.5 20-11.7-7.6.4-12 1.2-11 1.4-16.7-3-5.2-7.3-6.4-7.4ZM35.8 69.9c0-1.8.7-2.4 1.7-1.4s.3 3.1-.5 3a1.5 1.5 0 0 1-1.3-1.6ZM45.2 88c-.9-1.4 1.3-1.7 1.9-1s-.6 3-2 1Zm34.9 8c-.3 2.7 4.5 1.8 4.4-2s-4-.1-4.4 2Zm-15.4 3.8c-1.2-.9 2.4-2.2 2.5-1s-1.8 1.5-2.5 1ZM84 89.6c-1 .1-.6 2 .3 2s2.5-2.4-.3-2Zm6-15.2c-1.3.3-1 2.9.2 2.7s1.6-3.1-.2-2.7Z"
      style="mix-blend-mode:soft-light" />
    <path fill="#83bb26"
      d="M91.6 23.8s-15 17.4-20.4 35.8l-.4 1.1c-.5 1.9 0 4.1-.4 6 0 0-2.4 1-6-1.7a11 11 0 0 0 2.8-3.7 8.6 8.6 0 0 0 .5-1.3c2.5-9.2 6.9-28.6 17.1-40.2a5.1 5.1 0 0 1 6.8 4Z" />
    <path fill="#865e00"
      d="M84.8 19.7a21.1 21.1 0 0 0-6.8 6.6c-3.2 4.7 3.2 11.9 3.7 11.2s7.2-5 9.9-13.7Z" />
    <path fill="#b59f00" d="M84.8 19.7c-2 1-5.7 4-3.8 4.7 2.3.9 10.6-.6 10.6-.6s-2.1-6.5-6.8-4Z" />
    <path fill="#912774" d="M76.8 32.4s-2.5 5-.5 9.8c1.3 3.1 5-4.8 5-4.8a14 14 0 0 1-3.9-6.2Z"
      opacity=".3" style="mix-blend-mode:multiply" />
    <path fill="#912774"
      d="M77.3 28.7c-.7-3.6 7.6-4.3 10.7-4.8s2.5 1.9 2.5 1.9-4.2 7-6.3 9c-4.9 4.9-6.6-4.3-7-6Z"
      opacity=".2" style="mix-blend-mode:multiply" />
    <path fill="#fff" d="M73.6 40c2.1-5.8 3.1-5 1 2.3A99.9 99.9 0 0 1 68.4 57s3.6-13 5.1-17Z"
      style="mix-blend-mode:soft-light" />
    <path fill="#912774" d="M83 25c-1.4 1.8 1.4 3.5 2.7 3.4s4.4-4.2 4.4-4.2Z" opacity=".2"
      style="mix-blend-mode:multiply" />
    <path fill="#ffd8ff"
      d="M41.3 95c6 0-7.4-11.3-6.3-24.2s11.2-15.3 12.2-16.1-12.8 1.6-15 17.6c-2.3 17.2 9 22.6 9 22.6Z"
      style="mix-blend-mode:soft-light" />
    <path fill="#912774"
      d="M70.8 60.7c-.5 1.9 0 4.1-.4 6 0 0-2.4 1-6-1.6a11 11 0 0 0 2.8-3.8c-.6 3 1.8 0 4-1.7l-.4 1.1Z"
      opacity=".3" style="mix-blend-mode:multiply" />
  </g>
</svg>