<svg xmlns="http://www.w3.org/2000/svg" viewBox="0 0 128 128">
  <g style="isolation:isolate">
    <circle cx="40.6" cy="53.2" r="18.5" fill="#4b3c90" transform="rotate(-6 40.6 53.2)" />
    <path fill="#912774"
      d="M22.7 57.8c0-9.3 12-.5 20.5 3.7s12.7-4.5 14-3.5S50 73.8 37 70.5 22.7 57.8 22.7 57.8Z"
      opacity=".3" style="mix-blend-mode:multiply" />
    <path fill="#912774" d="M50.5 58.5c2.6 2.3 8.1-3.7 5.2-8.2s-10.6 3.2-5.2 8.2Z" opacity=".5"
      style="mix-blend-mode:multiply" />
    <path fill="#8abe23"
      d="M74.3 55.3C72.3 59 67.5 52 64 52s-7.7 11.6-8.3 14.7 2 .6 4.5 3.6.4 4.5-.8 5-3.7-4.7-5.8-4.4-2.8 6.6-3.9 7.8a3 3 0 0 1-4.8-1.3c-.8-2.4 4.3-6 8.9-14.3s-1.2-3.3-2.7-5.5.3-4.3.9-5c.4-.6 2.2 0 4.5-1.1a9 9 0 0 0 2.4-1.7 29 29 0 0 0 3.8-6.3c3.9-7.5 8.4-18.7 8.4-18.7a6.7 6.7 0 0 1 6.6 3.6S70 36 67.2 43.4s7.7 7.4 7.7 7.4 1.3.8-.6 4.5Z" />
    <path fill="#912774" d="M36 69c-5.7-3-13.7-11.9-11.6-13.6S36.5 58 46 63.1s3 12.7-10 6Z"
      opacity=".5" style="mix-blend-mode:multiply" />
    <path fill="#9d8ca2"
      d="M74.3 55.3C72.3 59 67.5 52 64 52s-7.7 11.6-8.3 14.7 2 .6 4.5 3.6.4 4.5-.8 5-3.7-4.7-5.8-4.4-2.8 6.6-3.9 7.8a3 3 0 0 1-4.8-1.3c-.8-2.4 4.3-6 8.9-14.3s-1.2-3.3-2.7-5.5.3-4.3.9-5c.4-.6 2.2 0 4.5-1.1-.5 1-2.3 13 .7 7.6s5.5-7.4 7.5-8.7 2-6 .6-5.5c-1.2.4-5.5 5.3-2.6-1.4 3.9-7.5 8.4-18.7 8.4-18.7a6.7 6.7 0 0 1 6.6 3.6S70 36 67.2 43.4s7.7 7.4 7.7 7.4 1.3.8-.6 4.5Z"
      opacity=".4" style="mix-blend-mode:multiply" />
    <circle cx="46" cy="84.7" r="18.5" fill="#4b3c90" transform="rotate(-63 46 84.7)" />
    <path fill="#912774"
      d="M27.5 84.7c.4-9.4 12.3 10.4 15.9 5.3S46.3 73.7 59 79.7s-5.8 25.4-18 21.8a18.8 18.8 0 0 1-13.6-16.8Z"
      opacity=".5" style="mix-blend-mode:multiply" />
    <circle cx="69.1" cy="84.1" r="18.5" fill="#4b3c90" transform="rotate(-65 69 84.1)" />
    <path fill="#912774" d="M70.6 65.7c-6.1.5 8.6 11.5 11.6 14s7.3.4 1.5-7.5-13-6.5-13-6.5Z"
      opacity=".5" style="mix-blend-mode:multiply" />
    <path fill="#4b3c90" d="M104 64a18.5 18.5 0 1 1-8.4-24.7 18.5 18.5 0 0 1 8.3 24.8Z" />
    <path fill="#912774"
      d="M72.1 46.5c2.9-2.3 1.7 12.8 11.2 20.6s18-3.4 19.4-2.8-9 14-22.9 7.8-11-23-7.7-25.6ZM52.5 80.9c2-2 7.3 13.3 16.3 16.9s14.4-4.7 15.3-4.5-10.4 14.5-23.5 6.3-8.7-18.1-8-18.7Z"
      opacity=".3" style="mix-blend-mode:multiply" />
    <path fill="#b3acff"
      d="M82 39.7c-7.8.3-7 22.8 5.3 28s18.9-13.6 17.2-17.7S99 38.9 82 39.7ZM61.3 69.3c-8.4 2-3.2 20.3 6.5 27.3S89.4 87.5 87.1 80 67.8 67.8 61.3 69.3ZM31.2 76c-2.1 7.3 19.4 2 22.8-3.8S35.4 62.4 31.2 76Zm-5.4-29.8c-2.3 8.4 20.3 3.8 27.7.8s-21.3-24.1-27.7-.8Z"
      opacity=".4" style="mix-blend-mode:soft-light" />
    <path fill="#f7f"
      d="M61.8 100.3c-2.8-2.1 8-.6 13.1 0s-6.5 5.1-13 0ZM88.1 74c-3.2-.6 4-2.4 8.4-3.2s-1.8 4-8.4 3.1Z"
      opacity=".8" style="mix-blend-mode:soft-light" />
    <path fill="#96c9ff"
      d="M101 46.7c-3.5-5.1-2.8 16.7-1 18.3s6.2-5.7 5.9-9.1-4.2-8.3-4.9-9.2Zm-22.4-4.8c-5 4.4-1.5 12-.3 15S89 45.2 89.2 42s-8.3-2-10.6 0Zm-18 44.3c1-7 16.1-.9 18.3 3.3s-5 9.7-11.3 6-7.3-7.5-7-9.3ZM42 51.4c-6.9 2.4.4 9.9 5.5 8.7s0-4.8-.4-7.1-5.2-1.6-5.2-1.6Z"
      opacity=".5" style="mix-blend-mode:soft-light" />
    <path fill="#96c9ff" d="M36.2 86.7c-2.6-3.5 7-3.9 8.2-2.8s-1.8 11.3-8.2 2.8Z" opacity=".3"
      style="mix-blend-mode:soft-light" />
    <path fill="#96c9ff" d="M38 99.6c-4-2.4 3-7.9 11.5-3.7s-4.2 8-11.4 3.7Z" opacity=".5"
      style="mix-blend-mode:soft-light" />
    <path fill="#f7f"
      d="M22.2 51.2S25.6 39.4 34 36.5s17.7 5.3 20.3 6.6 1.1-1.1 1.1-1.1a17.8 17.8 0 0 0-17.7-7.1 18.4 18.4 0 0 0-15.5 16.3Zm58-12.4s9.6-2.6 17.7 3.8 7.4 16.4 7.4 16.4a18 18 0 0 0-6.6-17.8 17.5 17.5 0 0 0-18.5-2.4ZM28.6 78.3s-3.1 15.4 9.5 21.3 19.6-.5 19.6-.5-10.3 8.7-22.1 1-7.2-21.2-7-21.8Z"
      opacity=".6" style="mix-blend-mode:soft-light" />
    <path fill="#f7f" d="M39.5 102c-2.6-1 4.6-1 7.7 0s-3.2 1.9-7.7 0Z" opacity=".6"
      style="mix-blend-mode:soft-light" />
    <path fill="#fff"
      d="M76.8 80.8c-2.6-.7-3.5 3.1 0 3.4s2-2.9 0-3.4Zm18.4-34.3c-5.4 1.3-2.3 7.5 1 6.3s1-6.8-1-6.3ZM30.6 44c-1-2 2.7-1.3 3.5-.8s-2.1 3.6-3.5.8Z" />
    <path fill="#b3acff" d="M37 74.4c-1.4-1.9 3.5-2 4-1.3s-1.2 5.1-4 1.3Z"
      style="mix-blend-mode:soft-light" />
    <path fill="#f7f" d="M23.1 59.2s8 9 13 9.9L34 70.7s-8.5-4-10.8-11.5Z" opacity=".6"
      style="mix-blend-mode:soft-light" />
    <path fill="#ffe592" d="M71.2 24.8c0 1.7 6.6 3.6 6.6 3.6a5.9 5.9 0 0 0-6.6-3.6Z" />
    <path fill="#9d8ca2"
      d="M70.6 27.4c-1.3 2-3.8 7.3-2.8 9.3s8.2-6.4 8.7-7-3.9-2.9-5-3a.8.8 0 0 0-.9.7Z" opacity=".4"
      style="mix-blend-mode:multiply" />
    <path fill="#96c9ff"
      d="M57.2 58c-1.6.4-1.3-4 0-5.9a41.9 41.9 0 0 1 7.6-6.8c1.3-.8.5 4.4-1.4 6.1S57.2 58 57.2 58Z"
      opacity=".5" style="mix-blend-mode:soft-light" />
    <path fill="#912774" d="M87.2 74.3a18.5 18.5 0 0 1-18-14.3l.6-.5S78.6 72 87.2 74.3Z"
      opacity=".3" style="mix-blend-mode:multiply" />
    <path fill="#96c9ff"
      d="M76.8 63c0-1.8 4.3 1.5 5 3.6s-4.6 1.7-5-3.5Zm4.5-4.3c0-3 4.2-8.7 6-8.3s10 11 5.3 13.8S81 63 81.3 58.7ZM61 77c2.7 4.5 5.6 3.7 9 1s-1.6-7.8-5.6-8-4.8 4.6-3.3 7Z"
      opacity=".5" style="mix-blend-mode:soft-light" />
  </g>
</svg>