<svg xmlns="http://www.w3.org/2000/svg" viewBox="0 0 128 128">
  <g style="isolation:isolate">
    <path fill="#83bb26"
      d="M90.6 81.3a37.1 37.1 0 0 1-6.7 10 34 34 0 0 1-2.3 2.2 32.7 32.7 0 0 1-4 3 .5.5 0 0 1-.1.2 30.2 30.2 0 0 1-17 5h-.1a26.5 26.5 0 0 1-10.6-2.3c-11-5.1-16.8-17-15.9-29.7a38 38 0 0 1 3.5-13.2 35 35 0 0 1 24.4-20 26.6 26.6 0 0 1 16.4 2 25.8 25.8 0 0 1 6.5 4.3 26.8 26.8 0 0 1 3.6 4 29.9 29.9 0 0 1 4.5 9.3 1 1 0 0 0 0 .2l.5 1.7a36.2 36.2 0 0 1-2.7 23.3Z" />
    <path fill="#67ae65"
      d="M36.5 63.7c4.8-4.9 12.1 11.3 24.9 17.8s23.5 1.8 25.9 1.1S69 109.8 48 94.8 36.5 63.7 36.5 63.7Z"
      opacity=".3" style="mix-blend-mode:multiply" />
    <path fill="#67c765" d="M39.4 64c7.3-1.8 14 17.7 18.6 25.4s-9.4 7-15.9.4S31 66 39.4 64Z"
      opacity=".3" style="mix-blend-mode:multiply" />
    <path fill="#f7f"
      d="M83.8 91.3c-9.1 9.7-22.6 13.4-34 8-11-5-16.8-17-15.9-29.6.2 1.3 3.8 23.2 20.6 28.4 13.5 4.2 25-3.3 29.3-6.8Z"
      opacity=".8" style="mix-blend-mode:soft-light" />
    <path fill="#f7f" d="M56.5 101.5c-6-1.9 9.4-3.3 12-2.8s-5.9 4.6-12 2.8Z" opacity=".8"
      style="mix-blend-mode:soft-light" />
    <path fill="#fff"
      d="m60.5 101.8-.3.1h.2c2.5-1.2 22.7-11 25.7-28.2 3.2-18.4-5.1-30.3-6.7-29.4s1.7 12.6-7.6 32-18.2 24.5-18.2 24.5A68.7 68.7 0 0 0 71 73.4c5.8-17.2 6.8-29.2 3.1-31s-16 5.5-25.8 19.3-2.7 35.3-3.2 34.6-7.4-19.9 3.6-36.4 23.6-19.3 22.7-20.3-2-3.5-9.7-3a26.6 26.6 0 0 1 16.4 1.9 25.8 25.8 0 0 1 6.5 4.3 3.3 3.3 0 0 1 .2 2c-.6 1.2 8.5 10.2 2.5 30.4-5.6 18.7-24.2 25.7-27 26.6Z"
      style="mix-blend-mode:soft-light" />
    <path fill="#874700"
      d="M76 27.4c.8-1 3.7.2 4.5.7s2.5-.5 4.4.6a5.2 5.2 0 0 1 2.2 3.2s-3.5 2.7-6.7 1.4-4.4-5.9-4.4-5.9Z" />
    <path fill="#b47a00"
      d="m86.7 32.6-.4.6c-2 2.4-6.4 8.4-6.4 8.4a8.4 8.4 0 0 1-6-4 35.3 35.3 0 0 0 1.8-8.3l.1-1.5.1-.4c.4 0 .7 1.7 1.3 1.4s.6-3.5 3.3-2.6 2.3 6 3.5 6.3 4.5-1.7 2.7.1Z" />
    <path fill="#776a00" d="M66.2 59.2c-3.9-3.7-15 9.2-10 14.4s12-12.4 10-14.4Z" opacity=".3"
      style="mix-blend-mode:multiply" />
    <path fill="#776a00" d="M72 62.7c-2.3-3.3-9.6 9-8.3 12s10-9.5 8.3-12Z" opacity=".3"
      style="mix-blend-mode:multiply" />
    <path fill="#b3acff"
      d="M56.8 40A19.8 19.8 0 0 0 45 67.6c7.5 17.7 38.3 11.6 42.3-2.7S70 37 56.8 40Z"
      style="mix-blend-mode:soft-light" />
    <path fill="#fff" d="M59.2 49.6c-.8-2.7-4.6-3.8-5 1.2s6.5 3.6 5-1.2Z" />
    <path fill="#fff" d="M75 87.5c-1-2.7-11.8 2.7-12.2 7.8s13.6-3 12.1-7.8Z" opacity=".5"
      style="mix-blend-mode:soft-light" />
    <path fill="#912774"
      d="M90.6 81.3a37.1 37.1 0 0 1-6.7 10 34 34 0 0 1-2.3 2.2 32.7 32.7 0 0 1-4 3A50.2 50.2 0 0 0 92 73.2a31.4 31.4 0 0 0-3.7-26.3 29.9 29.9 0 0 1 4.5 9.3 1 1 0 0 0 .1.3l.4 1.6a36.2 36.2 0 0 1-2.7 23.3Z"
      opacity=".5" style="mix-blend-mode:multiply" />
    <path fill="#3e8474"
      d="M67.9 76.4c-3.7 1-12.3-.3-14.4-4.2s4.6-15.5 15-17.8 2 19 1 20.8-1.6 1.2-1.6 1.2Z"
      opacity=".3" style="mix-blend-mode:multiply" />
    <path fill="#912774" d="M74.5 38c-.4-1 1.7-8.2 2-8.7s1 .6 2.3-1.5 4.7-.1 2.1 7-6.4 3.1-6.4 3.1Z"
      opacity=".3" style="mix-blend-mode:multiply" />
  </g>
</svg>