<svg xmlns="http://www.w3.org/2000/svg" viewBox="0 0 128 128">
  <g style="isolation:isolate">
    <path fill="#ffd8e6" d="m32.8 79.1 50.5-51.8s25 27.7 2.3 47.8a41.5 41.5 0 0 1-52.8 4Z" />
    <path fill="#f9b214"
      d="M31 81.2s32 21.9 55.8-1.8S85 25.5 85 25.5l-1.7 1.8s22.1 26 0 48-50.6 3.9-50.6 3.9Z" />
    <path fill="#f28f2b"
      d="M59.4 101.2c-7.8 3.2-18 1.7-28.4-20 0 0 35.2 22.4 58.3-4.5 0 0-14.6 18-29.9 24.5Z" />
    <path fill="#a85592"
      d="M51.8 102.2c-5.3-2.4 3.3-9.1 11.1-11a152.2 152.2 0 0 0 18.6-6.5s-16.9 19-29.7 17.5Z"
      opacity=".5" style="mix-blend-mode:multiply" />
    <path fill="#c62792" d="M41 96.5c3 3.3 8.2-2.3 9.6-4.8S35.2 85.9 31.4 82c0 0 4.7 10.6 9.5 14.5Z"
      opacity=".2" style="mix-blend-mode:multiply" />
    <path fill="#e94445"
      d="M84 35.3c3.8 5.5 8.4 17.5-.6 32.6-10.2 17.4-38.9 14.7-43.6 10.8-.5-.4-.7-1-.5-1.4 3.8-8.1 39-46.9 42-45a11.6 11.6 0 0 1 2.7 3Z" />
    <path fill="#ce1374"
      d="M52 60.3c-2 2.8-9 11.3-8.4 13.3s14.6 1.2 20.8-2.5.8-9.7 1.9-15.2 9.9 3 16.2-3.4.4-15.8-2-17.8-11.5 7-12.3 8.2 3 4.2-3 13S52 60.2 52 60.2Z"
      opacity=".5" style="mix-blend-mode:multiply" />
    <path fill="#ce1374"
      d="M84 35.4c3.9 5.4 8.4 17.4-.5 32.6-10.2 17.3-39 14.6-43.6 10.8a2.7 2.7 0 0 1-.5-1.3c.9 2.8 24.8 5.2 34.5-1.5s6-9.5 6.6-10.5 2.5.2 3.9-2.5-16.6-12.1-17-12.6c.1-.1 17.4 9.2 18.5 8.6s1.8-7 1.6-8.2-18.8-3-19.3-3.1c.5 0 19.3-.2 19.5-2S84.3 36 84 35.4Z"
      opacity=".5" style="mix-blend-mode:multiply" />
    <path fill="#ffd8ff"
      d="M62.5 55.8c1.7 0 0 20.6-1.6 22.8S41.1 81.8 41 77c-.1-4.5 19.8-21.5 21.5-21.3Z" opacity=".3"
      style="mix-blend-mode:soft-light" />
    <path fill="#ffd8e6" d="M49.8 74.2c-2 .7-1.3-2.7-.4-3.4s4 2.3.4 3.4Z" />
    <path fill="#c62792" d="M95 67.2c-2.7.5-6-20.6-6-24s2.4-6.7 2.4-6.7 9 11.4 3.5 30.7Z"
      opacity=".2" style="mix-blend-mode:multiply" />
    <path fill="#ffd8e6"
      d="M46.7 84.8s9 3 10.6 2.6 3.2-2 4.5-1.5 6.2.2 8.1-.8 6.6-3.3 7.6-3.3 1.4-.3 2.5-2.5 1.8-1.8 2.5-2.5.3-1 .8-1.6l4.8-5.7a70.7 70.7 0 0 1-18 11.8c-10.7 4.9-23.4 3.5-23.4 3.5Z" />
    <path fill="#ce1374"
      d="M80.5 65.4c-1.2.1-7.7-4.8-9.3-6.4s1.8.5 5.4 2.5 3.9 4 3.9 4Zm-1.3 3.5c.2-1.4-8.7-6.7-10.3-7.9s2.7 2.6 3.2 7.2 6.4 4.6 7 .7Zm-22.7-7.6c-1.8.8 1.6 17 2.3 19s1.5-13.6.7-16-2-3.5-3-3ZM68.6 46c0 .6 8.4.2 10.4-.3s-7-2-8.7-2.3-1.7 2.6-1.7 2.6Z"
      opacity=".5" style="mix-blend-mode:multiply" />
    <path fill="#ffd8ff"
      d="M84.1 62.7c-.3.8-.6 1.2-2 1.6s-10.3-5.9-12.6-8 3-2.4 7.2-.3 7.7 6 7.4 6.7Zm-6.3-7.8c-.5.5 6.5 3.2 7.5 3.4s2.5-6.7 2-7.3-2.3-1.3-3-.5-6.5 4.4-6.5 4.4Zm-10 3c-1.2 1.6 11 9.7 11.8 9.6.4 0 1.5-.4-.2-2a78.6 78.6 0 0 0-8.2-5.7 22 22 0 0 0-3.4-2Zm-4.3 20.7c-1.5-.1 3.8-8 4.7-10.2s-.9-6.6-.7-7.5 4.1 5 4.7 8.2 2.8 3.5 1.4 4.7-6.5 5.1-10 4.8Z"
      opacity=".5" style="mix-blend-mode:soft-light" />
    <path fill="#ffc74c"
      d="M47.3 88.1s11 4.8 19 2.8c13-3.2 17.7-9 17.7-9a39.4 39.4 0 0 1-15.9 7c-8.8 1.5-20.8-.8-20.8-.8Z" />
    <path fill="#a85592" d="M51.8 102.2a72.5 72.5 0 0 0 22.3-10.4s-13.7 12.5-22.3 10.4Z"
      opacity=".5" style="mix-blend-mode:multiply" />
    <path fill="#ffd8e6" d="M50.3 61.4c1.2-1 11-5.3 16-10.5s1.9-8 1.9-8Z" />
    <path fill="#ffa781"
      d="M66.2 52.4c-.4 0 2.2 3.1 6.3 4 2.8.8-1.7-4.4-6.3-4Zm2.6-9.3c-1.5 0 4.1-5.4 4.8-5.2s-.3 5.5-4.8 5.3Z" />
  </g>
</svg>