<svg xmlns="http://www.w3.org/2000/svg" viewBox="0 0 128 128">
  <g style="isolation:isolate">
    <path fill="#944c15"
      d="M102.1 57.9a98.8 98.8 0 0 1-9.8 17.8c-8.7 12.6-23 26.3-41.8 21.4C29.7 91.5 26 66.5 26 49a118.7 118.7 0 0 1 1.2-17.3Z" />
    <path fill="#ca7292"
      d="M92.3 75.8C83.6 88.3 69.3 102 50.5 97c-20.9-5.5-24.6-30.6-24.6-48 8.7-4 23.2 28.6 37 37.6 13.4 8.7 28.5-9.9 29.4-11Z"
      opacity=".4" style="mix-blend-mode:multiply" />
    <path fill="#ca7292" d="M92.3 75.7Z" opacity=".2" style="mix-blend-mode:multiply" />
    <path fill="#ffd8ff"
      d="M52.6 55.3c-4.6 2.9-5.5 25 10.3 31.4S94 69.5 96.6 65.5s-7-2.6-20-4.6-22.6-6.5-24-5.6Z"
      opacity=".3" style="mix-blend-mode:soft-light" />
    <path fill="#ff89ff"
      d="M32 79.3c1-1.6 16.3 14.8 26.6 17S76.8 91 77.3 91s-13.8 11.9-29 5S32 79.4 32 79.4Z"
      opacity=".5" style="mix-blend-mode:soft-light" />
    <path fill="#ff89ff" d="M36 87.2c-2.4-3.8 6.3.5 12 5.3s-7.3 2.5-12-5.3Z" opacity=".5"
      style="mix-blend-mode:soft-light" />
    <path fill="#ca7292"
      d="M34.2 52.8c-7.6-3.7-8.3 17 1.2 27.2S53.2 91.6 61 92.2s-4.4-10-12-20.5S36.5 54 34.1 52.8Z"
      opacity=".4" style="mix-blend-mode:multiply" />
    <path fill="#ca7292" d="M81.2 88.5c-3.6-1 8.4-12.2 12.5-18.1s5.7-9 6.1-8.6S91 81 81.2 88.5Z"
      opacity=".8" style="mix-blend-mode:multiply" />
    <path fill="#ca7292"
      d="M28.6 34.8S36.5 49.7 60.9 58s39.5 1.6 39.5 1.6-14.2 5.7-39.3-2.4-32.5-22.4-32.5-22.4Z"
      opacity=".4" style="mix-blend-mode:multiply" />
    <path fill="#ffd8ff" d="M75 77.2a2.7 2.7 0 0 0-3.4 4c2.6 2.4 5.5-2.4 3.5-4Z" opacity=".5"
      style="mix-blend-mode:soft-light" />
    <path fill="#a44320" d="M27.3 33.6c-5-12.4 67 7.3 74 21.7s-57.8 19.4-74-21.7Z" />
    <path fill="#98c338"
      d="M32 33.8c0-3.5 29.8-.6 47 7.6s19.5 14.1 18.7 17.2-23.4 8.8-42.3 1.3S31.9 36 31.9 33.8Z" />
    <path fill="#ca72a2"
      d="M47.4 36.7c-8.6-.3-8 8.4 6.4 16.5s23.2 4.3 30 5.1-3.7-12-13-16.3-20.3-5.2-23.4-5.3Z"
      opacity=".4" style="mix-blend-mode:multiply" />
    <path fill="#d6ea00" d="M49.3 45.8c-2.4-3.6 10.6-4.6 22.5 1s2.8 9.2-8 6.6-12.8-5-14.5-7.6Z" />
    <path fill="#c62792"
      d="M86.5 73.7c1.3-1.4 1.1-2.3-.3-2.2s-2.4 2-1.7 2.5a1.6 1.6 0 0 0 2-.3Zm-16.3 19c1.6-.4.1-2.2-.8-2s-1.6 2.6.8 2ZM34.5 78.1c-.8 1.9-3.8-.5-2.2-3.1s2.8 1.5 2.2 3.1Zm1.9 6.5c.8.1 0-1.7-.6-1.3s.2 1.3.6 1.3Zm-3.9-23.8c.3.7 1.3-1 .8-1.1s-1 .7-.8 1.1Zm21 5c.7.8-1 2-1.6 1.3s-.3-3.6 1.6-1.3Zm-5.6-4.3c1.4.2 1.1 3 0 2.9s-1.9-3.2 0-2.9Zm-13-9.8c.8 1.1-1.3 2.8-2.1 2s1-3.6 2-2Z"
      opacity=".4" style="mix-blend-mode:multiply" />
    <path fill="#59374a"
      d="M76 55.7c-1-.3 2 2.7 3.5 2.9 4.6.5-.6-2.1-3.5-3Zm4.4-4.4c-1.1.2 6 2 6.9 1.4 2.9-1.6-4-2-6.9-1.4ZM75 47c-1 0 2.8-2 4.4-1.3 4 1.7-3 1.4-4.4 1.4Zm-23.6 3c1.5-1.2-7.4-2.5-5.5 0 .6.9 4.6.8 5.5 0Zm-2.2-8.2c1.1 0-5.2-3.4-6.4-3.4-5.2 0 4.3 3.2 6.4 3.4Zm23.7 15c-.8-.1 1.6 3.4 3 3.8 4.1 1-1.2-3.3-3-3.8Zm-1.7-12.2c-.6 0 1-2.8 2.2-2.7 2.8.1 0 2.3-2.2 2.7Zm-16.7 7.8c.5-.8-6.4 2-5 2.8 2.8 1.3 4.7-2.1 5-2.8Zm2.1-11.7c-.7 0-4.8-3.3-2-3.3 1 0 2.8 3.3 2 3.3Z" />
    <path fill="#ffd8ff"
      d="M61.8 36c-2-.3 2.4 3.8 6.6 4.7a39.7 39.7 0 0 0 9 1c1.3 0-9.8-4.6-15.6-5.6Zm-4.1 6.8c-8.6-1 10.2 8 15.1 7.8s.9-6-15-7.8Z"
      opacity=".7" style="mix-blend-mode:soft-light" />
    <path fill="#fff"
      d="M91.6 51.4c-1.2-.3-.1 3 1.9 3s1.9-2.3-1.9-3ZM36.4 32.8c-2 0-3.2 2.3 3.5 2.6 2.9.1-.4-2.5-3.5-2.6Z" />
    <path fill="#ffd8ff"
      d="M62.4 63.1a29.1 29.1 0 0 0 13.4 4.7 32 32 0 0 0 14.4-2.5 79.3 79.3 0 0 1-27.8-2.1Z"
      opacity=".5" style="mix-blend-mode:soft-light" />
  </g>
</svg>