<svg xmlns="http://www.w3.org/2000/svg" viewBox="0 0 128 128">
  <g style="isolation:isolate">
    <path fill="#fecb2c"
      d="M31.7 35.4 101 63.8s-7.7 27-46.3 29.2c0 0-4.8 5-10.1 3.4s-5.8-10.2-5.8-10.2-20.4-18.5-7-50.8Z" />
    <path fill="#ffd415" d="M33.4 32.6c5.8-7.4 62.6 16.7 67.2 29 6.5 17.2-84.8-6.8-67.3-29Z" />
    <path fill="#fff2e6"
      d="M36.6 33.7c3.9-2.8 18.4 1 32 7.3C84 48 98.4 58.3 98.2 64c-.4 8.4-81-16.5-61.5-30.3Z" />
    <path fill="#e79092"
      d="M27.2 57.7c.3-9.4 3.1-11.3 4.8-10.9s8.4 20 18 31.6-2 15.3-11.4 5.8-11.6-21-11.4-26.5Z"
      opacity=".2" style="mix-blend-mode:multiply" />
    <path fill="#fdc222"
      d="M74.1 58.7a75.7 75.7 0 0 1-27.5-9.9s5.5 0 8.4-.3c2.9-.3 9.5-1.9 10.3-.7l4.1 5a1.5 1.5 0 0 1 .2.2c2.4 2.8 4.8 5.7 4.5 5.7Z" />
    <path fill="#e79092"
      d="M53.5 48.6c-4.3.2 9.8 5.3 13.5 6.2s-3.5-4.1-3-5.5 2.6 3.7 5.5 5.5-4.3-7-4.8-7.2-9.4 1-11.2 1Zm-22.8-2.4c2.6-2.4 11.7 27.6 27.3 35.4s25-1 27.2-.3-21 15.5-36.5 9.2-26.1-36.8-18-44.3Z"
      opacity=".2" style="mix-blend-mode:multiply" />
    <path fill="#ec8292"
      d="M39.3 87.3c1.4-2 1.6 6.5 5 8.4 3.8 2.2 7.6-1 8.2-1.4s-3.1 3.6-8 2-5.2-9-5.2-9Z"
      opacity=".5" style="mix-blend-mode:multiply" />
    <path fill="#ec8292"
      d="M27.2 57.7c0-4 6.2 27.6 21.8 32.2 18.2 5.2 30.8-3.2 30.8-3.2s-21.4 11-34.7 3.1-17.8-20.1-18-32Z"
      opacity=".5" style="mix-blend-mode:multiply" />
    <path fill="#ffd8ff"
      d="M53.8 59.5C44.6 59 47 81.3 65.3 84.2s27.4-12.1 28.5-14S83.1 68 73 65.8s-17.8-6.2-19-6.2Z"
      opacity=".5" style="mix-blend-mode:soft-light" />
    <path fill="#ec8292"
      d="M99.8 66.5c-1.4 0-7.9 12-12 15a47.4 47.4 0 0 0 12-15ZM60.7 91.6c-4 0 20.4-9 23.5-10.2s-7.6 10.4-23.5 10.2Z"
      opacity=".5" style="mix-blend-mode:multiply" />
    <path fill="#ffd8ff" d="M42.7 88.8c-2.1-1.4-.7 5.5 1.2 6.7s7.3-.8 8.1-1.6-5.4-2.5-9.3-5.1Z"
      opacity=".5" style="mix-blend-mode:soft-light" />
    <path fill="#ffe250"
      d="M32.2 42.8s.4 7.9 27.1 19 40.3 4 40.3 4-14 5-39.7-5.2-27.7-17.8-27.7-17.8Z" />
    <path fill="#fff" d="M62.2 62.7c-3.7-2 11.2.5 14.8 3s-4 3-14.8-3Z" />
    <path fill="#ffd8ff"
      d="M27.2 56c.8-1.7 1.7-1.9 2.2-.6s-1 3-1.7 2.5a1.6 1.6 0 0 1-.5-1.9ZM35 69.9c-.2-1.6 2-1 2.2-.1s-1.7 2.5-2.1 0Zm24.3 16.8c-1.8 1.8 2.6 4 4.8.9s-3.2-2.5-4.8-1ZM36.4 72.5c-.4-.7 1.5-.6 1.4 0s-1.2.4-1.4 0Zm43.5.9c-1-.3-1.3 1.7-.5 2s3.3-1.3.5-2Zm-.9-3.3c-1.3-.2-2 2.4-.9 2.7s2.8-2.3 1-2.7Z"
      style="mix-blend-mode:soft-light" />
    <path fill="#ec8292"
      d="M74.1 58.7a75.7 75.7 0 0 1-27.5-9.9s5.5 0 8.4-.3c-.6.1-4.7.7-5 1.6s10.7 3.5 16 4.9 5.4 2.9 6.7 3-2.3-4-3.1-5a42 42 0 0 1 4.5 5.7Z"
      opacity=".5" style="mix-blend-mode:multiply" />
    <path fill="#fdc222"
      d="M94.2 62c-2 1.5-14.1-1-17.5-3.3-2.8-2-9.7-9.5-10.8-12-.3-.4-.3-.7.1-.6a93 93 0 0 1 24.6 12l.3.2a19.1 19.1 0 0 1 2.8 2.3c.6.7.8 1.1.5 1.4ZM62.8 45.7C63 44 38.4 36 36.3 36.2s1 8.1 6.9 10.3 19.5 0 19.6-.8Zm.9-1.2c-1.7-.6-20.2-8.5-21-9.6s12.8.4 21.7 4.7 0 5.1-.7 4.9Z" />
    <path fill="#fdc222" d="M65.7 45.4c-.9-.3 4-1.9 6.3-1.4s17.2 8.7 18 11-8.2-4.3-24.2-9.6Z" />
    <path fill="#e79092"
      d="M66 46c0 1 5.4 6.8 9.4 9.3s-2.2-2.6-4.4-5.2 7.8 6.5 14.2 9-2.5-5.1-7.2-7.8a86.3 86.3 0 0 0-12-5.2Zm-26.6-9.2c-2.1-.5 5.3 7.8 11.2 9.4a16.2 16.2 0 0 0 11-1 101 101 0 0 0-22.2-8.4Z"
      opacity=".2" style="mix-blend-mode:multiply" />
    <path fill="#ec8292"
      d="M35.7 37.8a13.5 13.5 0 0 0 7.2 7.5c5.6 2.6 17.5 1.2 17.5 1.2s-11.8 2-17.2 0-7.5-8.7-7.5-8.7Zm12.3-.1c-3.8-3.1 10.3-1 14.7 2s5 1.6.2-.7-12.3-3.8-15-4-4.7-.4-5.1 0 5.2 2.7 5.2 2.7Z"
      opacity=".5" style="mix-blend-mode:multiply" />
    <path fill="#e79092"
      d="M67.6 44.8c-.7.3 5.7 3.2 11.3 4.7s-5.2-5.2-6.5-5.4a12.9 12.9 0 0 0-4.8.7Z" opacity=".2"
      style="mix-blend-mode:multiply" />
    <path fill="#ec8292"
      d="M93.8 60.7A126.6 126.6 0 0 0 77 50.8c-8.2-4-10.3-3.7-11.2-4-.2-.5-.2-.8.2-.7a93 93 0 0 1 24.6 12l.3.2a36 36 0 0 1 2.8 2.4Zm-48-22s11 4 12.9 5.5a3.8 3.8 0 0 0 3.5.8 123.5 123.5 0 0 0-16.4-6.3Z"
      opacity=".5" style="mix-blend-mode:multiply" />
    <path fill="#fff2e6"
      d="M52 43.7c-1.1-.8 4.2.3 4.8 1s-1.3 1.4-4.8-1Zm23 2.1c-.7-1-5.8-.7-5.8-.4s8.1 4 5.8.4Z" />
  </g>
</svg>