<svg xmlns="http://www.w3.org/2000/svg" viewBox="0 0 128 128">
  <g style="isolation:isolate">
    <path fill="#636a00"
      d="M61.4 35.8c3.2-1.2 6.4-4 6.8-10.6s10.3-5.1 17.5.6-8 7.7-12.9 7S61 37 61 37Z" />
    <path fill="#f59c22"
      d="M48.2 38.3c-17.2-.1-28.3 15.5-29 36.5-.8 24.4 22.7 36 41.3 30 24.7-8 36.6-66.1-12.3-66.5Z" />
    <path fill="#e79092"
      d="M44.5 40.3c-2.3.8 12 4.7 18.3 6.3s10.3 11.5 7.7 32.7-15.5 27-18.7 27c0 0 13 0 20.4-23.4S67 46.8 66 45.2s-12.8-8.3-21.5-5Z"
      opacity=".6" style="mix-blend-mode:multiply" />
    <path fill="#bf7492" d="M48.3 42.6c-4.9-1.8 8.8-1.6 13.3 2s-8.1 0-13.3-2Z" opacity=".6"
      style="mix-blend-mode:multiply" />
    <path fill="#873800"
      d="M51.4 42.9C56 42.6 53.2 32 54 31.6s6.2.9 7.7 2.1-3.6 7.1-3.9 10-6.4-.9-6.4-.9Z" />
    <path fill="#e78d33" d="M54 31.6c-.8.1 1.3 3.1 4 4.7s3.4-.3 4-1.6-5.3-3.5-8-3.1Z" />
    <path fill="#e79092"
      d="M21.3 75.7c-1.7 2.3 1.3 25 19 28.7s24-19.9 25.5-22-12 6.7-26 3.3-17.8-11-18.5-10Zm59.5 3c-.2-2.6-1.3-3.1-4.7 2-2.6 4-5.8 13.5-8.4 16.1-6 6-8.2 6.8-7.4 7.3s15-4.3 20.5-25.4Z"
      opacity=".4" style="mix-blend-mode:multiply" />
    <path fill="#ffd8ff"
      d="M41.9 43.1c-11.5-4-25 22.1-12 33.5s33 6.9 38.8-3.7S64.8 50.6 57.6 47a43.9 43.9 0 0 0-15.7-3.9Zm30.8 4.4c-3.3-2.3 4.4 11.9 2.9 25.7s4.1 5 5.5.6 1.6-19.4-8.4-26.3Z"
      opacity=".5" style="mix-blend-mode:soft-light" />
    <path fill="#e79092"
      d="M65.5 48a26.3 26.3 0 0 1 8.1 12.5c2.6 8.4-4.3 25.4-4.3 25.4s3.4-14 2.2-23.9-6-14-6-14Z"
      opacity=".6" style="mix-blend-mode:multiply" />
    <path fill="#ffd8ff"
      d="M54.7 105.6c-3.6-.1 10.7-19.1 13.3-26s1 10.3-3.3 17-10 9-10 9ZM69 98.5c-2.2 1 7.3-16 9.4-17s-3.2 14.3-9.4 17Z"
      opacity=".5" style="mix-blend-mode:soft-light" />
    <path fill="#ffd8a1"
      d="M77.6 59.7c-1.8.4-2.4 15.2-2 19.3s5.3-1 6-8.2-2.9-11.3-4-11.1Zm-8.2-1.9c-1.8-5-6.7 15-5.2 20.6S75 72 69.4 57.7Zm-28-17.1c-2.6-.7-5.4 3.7-2.5 7.6s24.2 5.5 26 4-2.2-4.6-10.7-7.2-12.8-4.4-12.8-4.4Z"
      style="mix-blend-mode:soft-light" />
    <path fill="#fff" d="M41.5 63.4c-.3-1.6-2.4-2.5-3 .3s3.5 2.5 3-.3Z" />
    <path fill="#e79092" d="M45.2 103.5c7 1.2 16-11.8 17.1-16.7s-6 2.2-22.1 1 .2 14.9 5 15.7Z"
      opacity=".3" style="mix-blend-mode:multiply" />
    <path fill="#904f56"
      d="M70.8 94.2c1.6-.8 1.8-1.6.6-2.1s-3 1-2.5 1.7a1.5 1.5 0 0 0 1.9.4Zm-21.8 11c1.6.2 1-2 0-2.1s-2.3 1.7 0 2ZM22.4 78.7c-1.3 1.4-3.1-1.9-.7-3.6s2 2.4.7 3.6Zm-.6 6.6c.6.3.5-1.6-.1-1.4s-.3 1.1 0 1.3ZM27 62.4c0 .8 1.7-.3 1.2-.7s-1.1.3-1.1.7Zm38 .4c.3 1-1.7 1.4-2 .5s1.2-3.2 2-.5ZM50.3 78.9c0 1.3-2.7 1.4-2.7.3s2.8-2.2 2.7-.3ZM32.7 55.1c.3 1.4-2.3 2.1-2.6 1s2.2-2.8 2.6-1ZM28 94.4c1.2-1 3.6 2 3 2.6s-4.5-1.3-3-2.6Zm2.3-2.9c-.2.4.3 1.2 1 .7s-.5-1.3-1-.7Z"
      opacity=".4" style="mix-blend-mode:multiply" />
    <path fill="#ffd8a1" d="M55.2 31.6c-2.5 0 2.2 4 4 4.3s2.4-.7 2.3-1.6-4.3-2.8-6.3-2.7Z"
      style="mix-blend-mode:soft-light" />
    <path fill="#bf7492" d="M54.5 33.4c-.8-.5.1 5.3 1 7.6s5-3 5.5-3.9.2.2-2-.2-4.5-3.5-4.5-3.5Z"
      opacity=".6" style="mix-blend-mode:multiply" />
    <path fill="#ffb8ff"
      d="M20 81.7c-.4-.3 9.4 18.5 22.9 21.3s17.7-1.4 17.7-1.4-3.8 4.2-8.2 4.9-28.3-2.3-32.5-24.8Zm37.9 23.8c-1.2-.6 3.5-2.4 8.2-5.9s8.5-6.6 8.5-6.6S68 103.9 58 105.5Z"
      style="mix-blend-mode:soft-light" />
    <path fill="#e79092" d="M23.4 68c-2-6.8-4.7 10-.9 18.1s9 2.7 5.8-5.1-5-13-5-13Z" opacity=".5"
      style="mix-blend-mode:multiply" />
    <path fill="#fff" d="M73.1 50c-1.4.1 1.1 3.3 1.9 3.6s1.6-3.6-2-3.6Z" />
    <path fill="#ffd8a1" d="M67.8 96c-.8-2 5.6-12 6.7-18s.8 4.7-2.2 11.5-4.5 6.5-4.5 6.5Z"
      style="mix-blend-mode:soft-light" />
    <path fill="#e79092" d="M54.6 106.1s8-4.2 11-6.5 3.2-11.2 3.2-11.2-7 14.5-14.2 17.7Z"
      opacity=".9" style="mix-blend-mode:multiply" />
    <path fill="#848d00"
      d="M71 33c9.6 0 23.2 16.2 24.2 36a40.3 40.3 0 0 1-11.8 30.9l14.8-8.7 4.2-35.3-17.2-26-9.7-1.1Z" />
    <path fill="#8ebf22"
      d="M108.4 74.4a37 37 0 0 1-1.3 5.8 38.9 38.9 0 0 1-33.3 26.9c-2.2.2-3.4 0-3.3-.4.9-1.6 26-5.8 26.2-34.7S78.3 32.7 72.8 32.8s-13.2 6-13.2 6l1.8-3s2.4.3 5-3 9-13.6 16.8-10.7c7.3 2.8 28.8 27.4 25.2 52.3Z" />
    <path fill="#912774" d="M87.2 43.7s13.5 19.8 5.3 42.2c0 0 12-17.8-5.3-42.2Z" opacity=".5"
      style="mix-blend-mode:multiply" />
    <path fill="#deda9f"
      d="M84.2 23.3c-2.7-1.1-15.8 7.3-14.5 7.9s18 3.9 25.2 7-6.7-13.3-10.7-15ZM89.3 43c1.2-1.9 15.9 11.4 18 22.2S102 93 98.8 93.1s3.6-14.4-3.1-32.2c-5-13.2-6.4-18-6.4-18Z"
      opacity=".6" style="mix-blend-mode:multiply" />
    <path fill="#ffd8a1"
      d="M88.2 36c-6.2-1 3 6.1 10.2 13.7s8.2 10.8 8.6 10.9-6.1-18.8-9.3-21-9.5-3.6-9.5-3.6Zm-9.5 68.2c-1 1.1 13.4-2.7 16.8-6.7S99 75 98.1 73.7s-.9 8.5-5.6 16.3-12.5 12.8-13.8 14.2Z"
      style="mix-blend-mode:soft-light" />
    <path fill="#912774" d="M77.5 22.2c-1.3-1-5.8-1.3-7 1.5S67.9 31 67.9 31s5-6.9 9.6-8.8Z"
      opacity=".5" style="mix-blend-mode:multiply" />
    <path fill="#ced818"
      d="M67.9 31s10.4-6.8 13.2-7.7a6.6 6.6 0 0 1 5 .6s-3-2.8-6.5-2.2S72 25 68 31Z" />
    <path fill="#566600"
      d="M108.4 74.4a37 37 0 0 1-1.3 5.8 38.9 38.9 0 0 1-33.3 26.9A44 44 0 0 0 93 99.3c9.6-7 15.3-24.9 15.3-24.9Z"
      opacity=".8" style="mix-blend-mode:multiply" />
    <path fill="#deda9f"
      d="M74.3 27.3c-2.2 2.2 7 10.3 16 7.4 3.8-1.2-1.9-10.9-5.7-11.4s-10.3 4-10.3 4Z" opacity=".6"
      style="mix-blend-mode:multiply" />
    <path fill="#d6f918"
      d="M86.7 38.2c.2-.1 13.3 11.5 17.1 20.3s4 14.8 4 14.8 2.3-6.5-1.6-14.5a80.5 80.5 0 0 0-19.5-20.6Z" />
  </g>
</svg>