<svg xmlns="http://www.w3.org/2000/svg" viewBox="0 0 128 128">
  <g style="isolation:isolate">
    <path fill="#e63216"
      d="M96.4 95.5v.1a46 46 0 0 1-12.9 10.2 21.4 21.4 0 0 1-7.5 2.5 54.2 54.2 0 0 1-22.3-2.7l-3-1.2a53.6 53.6 0 0 1-22.1-13c-9-8.9-11-34-2.8-46.4l1-1.3A15.8 15.8 0 0 1 31 40c10.6-6.4 24.8-4.8 32.3-5.3 3-.3 5-.9 5.1-2.5a13.1 13.1 0 0 0-1.5-6.7c-.8-1.7-4.3-2.6-6-4a3 3 0 0 1-1-2.5s8.5 4.1 11.7 5.2S75 20.4 75 20c.2.2 6.3 5.8 9.4 7L98 32c-.1 0-.2 2.2-1.4 2.2-2.7 0-6.4.4-6.4.4s-6.7.7-8 2.5c-.7 1.2 0 2.6 1.5 4.3a43.5 43.5 0 0 0 3.4 3c6 5 15.6 12.2 19.3 22.3a15.2 15.2 0 0 1 .9 4.2c.6 7.9-4.2 17.2-10.9 24.5Z" />
    <path fill="#fc9568"
      d="M61.1 19.7s8.6 8 12.9 10.3 9.6.4 10.4.3 4.1 2.1 5 2.3S98 32 98 32s-11.7-3.3-14.8-5-7-5.4-7.5-5.4 1.4 3.5-1 3.6-13.6-5.6-13.6-5.6Z" />
    <path fill="#e64592"
      d="M82.3 37.2c-.8 1.2-.1 2.6 1.5 4.3-.3.2-4.1 3.3-12.5.8-7-2.1-8-6.1-8-7.5 3-.2 5-.8 5-2.5a13 13 0 0 0-1.4-6.7s7 6.6 8.8 8 7.6-1.4 8.7-1.5a4.2 4.2 0 0 1 2.5 1.2l3.3 1.4c-3.4.2-6.7.7-8 2.5Z"
      style="mix-blend-mode:multiply" />
    <path fill="#ffcfc6" d="m74 30 2.4-5.1c.9-2 4 .8 5 3.4S76.9 32 74 30Z" opacity=".8"
      style="mix-blend-mode:multiply" />
    <path fill="#da4592"
      d="M68 28.8c.8-1.4 6.4 3.2 7.6 6.7s-.6 7.4-3.4 6.6-7.8-4-6.2-6.2 2.4-2.7 2.5-4.1a8.2 8.2 0 0 0-.4-3Z"
      opacity=".8" style="mix-blend-mode:multiply" />
    <path fill="#e64592"
      d="m96.4 95.5-1.4.1a35.8 35.8 0 0 1-12.8 10.2c-1.8.8-2.4 1.4-4.4 1.7-7 1-15.7-.1-24.2-2l-3-1a53.6 53.6 0 0 1-22-13c-9-9-11.1-34-2.8-46.5l1-1.3c9.6-6.1 44.6 29.2 50.5 34s-3.3 28.2-.6 26c10-7.8 22.3-33.2 28.8-33.5 4.3-.2 0 14.3-9 25.3Z"
      opacity=".8" style="mix-blend-mode:multiply" />
    <path fill="#ffffc7"
      d="M65.8 40.4c-16.7-5.2-20 12.3 3.2 30.4s35-1.5 36-5-15-19-18.4-20.1-9.7-.7-13.8-2a29.3 29.3 0 0 1-7-3.3Z"
      opacity=".3" style="mix-blend-mode:soft-light" />
    <path fill="#e64592"
      d="M31.8 51.9c-7.5-1-17.4 24.3 1.8 41s28.5 2.8 30.6-.6 2.8-24.6-12-35.6c-13.9-10.3-17.6-4.5-20.4-4.9Zm74.7 18.7c-3.3-1.1-18 19.4-20.2 25.6s13.8-5 17.5-12.3 3.7-13 2.7-13.3Z"
      opacity=".8" style="mix-blend-mode:multiply" />
    <path fill="#ffffc7"
      d="M71.6 72.2c-7.4-4.2-8.3-24.3 6.2-25s24.7 13.3 22.7 21.7-10.2 13.8-29 3.3Z" opacity=".3"
      style="mix-blend-mode:soft-light" />
    <path fill="#da4592"
      d="M84.8 30.4a8.6 8.6 0 0 0 .2 1.8c.1 0-3.9.5-4.9 1.3S83 35 85.4 35s3.8.2 4.2-.4-.6-2-.6-2Z"
      opacity=".8" style="mix-blend-mode:multiply" />
    <path fill="#ffd8ff"
      d="M20.6 67.2s6 25.5 27.6 33.8 33.5 3.8 35.3 3.3-9.1 10.3-32.9-.5-28-15.3-30-36.6Z"
      opacity=".8" style="mix-blend-mode:soft-light" />
    <path fill="#ffd8ff" d="M24.6 85.8c-.7-1.2-1.4-8.2-.7-8.2s9.3 14 10.7 16-7 .6-10-7.8Z"
      opacity=".5" style="mix-blend-mode:soft-light" />
    <path fill="#fff" d="M83.9 65.8c-3.6-.6-3.3 3.4-.7 4.5s4.2-3.8.7-4.5Z" />
    <path fill="#ffffc7" d="M32.8 40.2c-2.7 2.4 9.4 6.3 13.1 4.7s10-6.5 9.3-7.4-13.9-4.8-22.4 2.7Z"
      opacity=".3" style="mix-blend-mode:soft-light" />
    <path fill="#ffd8ff"
      d="M29.8 45.6c-2.9-1.6-11.4 17.2-4 30.9 11.8 22 24.4 22.8 30.7 24.3s-8.9-1.6-18-8.8-11.3-19.6-9-29a39.5 39.5 0 0 0 .3-17.4Z"
      style="mix-blend-mode:soft-light" />
    <path fill="#fffcff"
      d="M102 81c-2-1.6-7 12.3-14 17.2s-17.2 5.5-18.5 6 14-.2 21.8-6.2 12.1-15.8 10.6-17Z"
      style="mix-blend-mode:soft-light" />
    <path fill="#ffd8ff"
      d="M102 81c0-2.4-10.3 14.5-12.6 17s12-4.2 12.5-17ZM37.7 53.8c-4.2-.9-7.4 10.2-2 13.8s3.3-13.5 2-13.8Z"
      style="mix-blend-mode:soft-light" />
    <path fill="#c62792"
      d="M70.5 92.6c1.3-1.2 1.2-2 0-2.1s-2.5 1.8-1.9 2.3a1.5 1.5 0 0 0 2-.2Zm14.4-48.4c-1.2-1.3-2-1.3-2.2 0s1.6 2.6 2.2 2a1.5 1.5 0 0 0 0-2ZM55.5 90c1.5-.3.2-2-.6-2s-1.7 2.3.6 2ZM94 56.2c1.5-.2.3-2-.6-1.9s-1.7 2.3.6 2ZM37.5 76.8c-.8 1.8-3.5-.8-1.8-3s2.5 1.6 1.8 3Zm1.3 6.2c.7.2 0-1.5-.4-1.2s0 1.2.4 1.3ZM37 60.5c.2.7 1.3-.8.8-1s-1 .6-.9 1Zm24.2-6.2c.6.8-1.1 1.7-1.6 1s0-3.3 1.6-1ZM50 60c.7 1.1-1.5 2.6-2.1 1.7S49 58.5 50 60Zm-10-7.9c.6 1.2-1.5 2.6-2.2 1.7s1.2-3.2 2.1-1.7Zm51.9 13.5c.7 1.2-1.5 2.6-2.1 1.7s1.2-3.2 2.1-1.7Z"
      opacity=".8" style="mix-blend-mode:multiply" />
    <path fill="#e64592" d="M28.6 70.3c4.2-17 35.9-.9 45.5 9.6s.2 23.6-11.2 21.7-29.6-6-34.3-31.3Z"
      opacity=".8" style="mix-blend-mode:multiply" />
    <path fill="#ffffc7" d="M39.8 40.8c-2.2-.9 2.9-2.1 3.8-1s-1 2-3.8 1Z" opacity=".5"
      style="mix-blend-mode:soft-light" />
    <path fill="#ffd8ff" d="M62.9 107.8c-5.2-2.6 19.2-1.6 20-2.6s-3.4 5.9-20 2.6Z"
      style="mix-blend-mode:soft-light" />
    <path fill="#ffceff" d="M27.4 43c5.4-6.2 20-6.5 26.5-5.6 8 1 7.5-2.5 7.5-2.5S35 33.6 27.4 43Z"
      opacity=".8" style="mix-blend-mode:soft-light" />
    <path fill="#ca0092"
      d="M107.3 71c0-.2-.5-2.2-4.8-8.5-4.6-6.7-15.4-18-15.4-18 6 5 15.6 12.2 19.3 22.3a15.2 15.2 0 0 1 .9 4.2Z"
      style="mix-blend-mode:multiply" />
  </g>
</svg>