<svg xmlns="http://www.w3.org/2000/svg" viewBox="0 0 128 128">
  <g style="isolation:isolate">
    <path fill="#a40027" d="M31.1 40c-4.4-15.2 61 7.7 63.5 24C96.8 78.3 43 80 31.1 40Z" />
    <path fill="#e94445"
      d="M46.8 62c-1-3.2 4.2-20.2 7.8-21.7s7.4 8.2 6 17.8C59.4 67 47.2 63.3 46.8 62Z" />
    <path fill="#e94445"
      d="M56.2 67.3c-2.8-4.1 5.3-21.5 12.5-22 7.4-.3 2.8 21.9-4.3 24.3-6.7 2.2-8.2-2.3-8.2-2.3Z" />
    <path fill="#e94445"
      d="M66 72.6c-1-2.1 5-15.5 10.6-18.2 6-2.9 7.9 7 1.5 15.7-5.9 8-12 2.5-12 2.5ZM43.3 59.3c4.4 1.5 5.5-6.5 2.7-15.4-3-9.6-8.1-8.5-10.5-6.3s-.6 18.7 7.8 21.6Z" />
    <path fill="#e94445" d="M43.8 46.6c4 13.8 11.7-7 10-15-1.8-8.4-18.7-1.3-21 2s7.4 0 11 13Z" />
    <path fill="#e94445"
      d="M45.4 51.8c5.4-11.8-9-20-13.8-16.5-4.7 3.2-8.3 18-1.8 23.8 3.6 3.1 14-4 15.6-7.3Zm10.1-.8c-5.5-5.4-1-13.3-1.7-19.3-.7-6.3 15-4.9 17.2 5.5C73.1 47 56.5 52 55.5 51Z" />
    <path fill="#e94445"
      d="M75.7 37.5c-6.3.8-9.3 10-8.8 15.5.5 5.3 14.4 7.3 19.8-2 6-10.4-8.4-13.9-11-13.5ZM35.4 75.2c-3.7-.3-5.3 6.9 0 14 5.2 6.6 9.3 1.2 10.2-3.4 1-4.7-7.7-10.4-10.2-10.6Z" />
    <path fill="#e94445"
      d="M31.8 58.8c-3.2-3.8-9 9.4 0 18.7 5 5.2 4.3-7.7 4-9.2a59 59 0 0 0-4-9.5ZM75 62.9c-.9-5.5 9-15.7 15.2-15.6 11 .3 7.9 13.4 4.3 19.3-3 5.2-19.4-3.7-19.4-3.7Z" />
    <path fill="#e94445"
      d="M78.7 63c-2-3.2 11.9-9.2 20.4-6.4 4.7 1.6 3.4 13.5-7 21.6-8.6 6.7-9.4 1.7-8.3-1.5s-.6-6.7-5.1-13.8Z" />
    <path fill="#ca0092"
      d="M46.5 46.4c2.2 3.5 6.1-3.6 6.1-3.6s-.3 4.4 5 6.4S69 43.7 69 43.7s-3 9.8 1.6 11.8S82 51 82 51s-5.8 6.2-5.5 8.1 10.8-2.3 10.8-2.3l-4.7 4.5L69.9 70 50 66l-5-13.7Z"
      style="mix-blend-mode:multiply" />
    <path fill="#e94445"
      d="M76.4 85c-2.2-.3-11.4 5.3-12.2 6.4s-3.3 3.6-1 5.4 6.9 0 9.3-2.1c5.7-5 4.7-9.7 3.9-9.8Z" />
    <path fill="#e94445"
      d="M85.3 75.4c-2-1.4-8 4.2-11.2 8.5-3.2 4-5.6 8.4-5 9.4s9.8.2 14.8-6.1c5.3-6.9 2.5-11 1.4-11.8Zm-38.9 5.8c-3-1.4-8 5.5-5.7 11.5 2 5.8 7.9 6.6 10 1.7 2.2-5.2-2.7-12.4-4.3-13.2Z" />
    <path fill="#e94445"
      d="M42.5 64.2c-.1 0-6.3 2.2-6.7 4s-3.4 9.9 1.5 17.2c2.4 3.5 7.2 1.3 9.6-5.5 1.1-2.8-3.6-15.5-4.4-15.7Zm17.8 21.3c-1-.4-12 8.3-11.5 11.3 1 6.3 12.2 3 14.7-1 5.2-8.5-1.3-9.6-3.2-10.3Z" />
    <path fill="#e94445"
      d="M58.2 71.9C56.3 70.7 47.8 77 46.7 79s-2 10.1 1.5 14.8 10.1.1 13.6-9.6c1.1-3-.5-10.4-3.6-12.4Z" />
    <path fill="#e94445"
      d="M73.6 75c-1.4-.5-9.4 6-11.8 9.3s-2 7.7-.6 9.3c2.6 3 13 .2 14.5-11.2.3-1.8-.9-6.7-2-7.3ZM51.5 60.7c2.7-1-2.6-17.4-14.6-12.2-6.6 2.8-5.8 14.3-3.2 19s12.7-4.8 17.8-6.8Z" />
    <path fill="#e94445"
      d="M53.2 59.2c-6.7 0-12.3 3.8-12.8 11.2-.5 6.8 3.6 12.3 10 10.1 2-.6 7-5.1 7.6-6.6 1.4-3.3 2.7-14.7-4.8-14.7Zm20.1 3.9c-3 1.8.7 7.9.3 13.3-.3 5.2 4.6 9.6 11.8 0 8-10.8-1.3-19.6-12.1-13.3Z" />
    <path fill="#e94445"
      d="M62 63.6c-2.4 1.5-3.3 3.3-5.2 9.5a9 9 0 0 0 4.4 11c2.6 1 7.8-1 12.4-7.7 2.3-3.4-.1-19.9-11.6-12.8Z" />
    <path fill="#ca0092"
      d="M90.6 77c-1.6-1-2.8-5-2.8-5l-.8 1.3c-1.7 2.9-6 9.2-9.4 8.3a5 5 0 0 1-3.9-5.4s-5.4 8.6-11.2 7.7-5.7-9.1-5.7-9.1-4.7 8-11.2 5.3S42 64.7 42 64.7s-3.8 4.7-7.8 1.6c-1.7-1.3-2-4.3-1.9-7.3.2-4 1.2-7.7.8-7-.9 1.4-4.8 7-6.7 0 1 5.6 3.3 7 3.3 7a.2.2 0 0 1 0 .1A18.8 18.8 0 0 0 32 66a45.4 45.4 0 0 1 2.6 12.4 17.9 17.9 0 0 0 1.6 7.8 20 20 0 0 0 4.4 6h.1a5.8 5.8 0 0 1 0-3c.4-1.4 4-3.6 4-3.6-.7 5.6 1.4 8.7 2.9 10.2a6.8 6.8 0 0 0 1.2 1s.8 1 4.8 1.5a14 14 0 0 0 8.3-1.6 14.9 14.9 0 0 0 2.1-1.4 1.4 1.4 0 0 0 1 .7 10.1 10.1 0 0 0 6-.2 13 13 0 0 0 3-2.6 2.9 2.9 0 0 1-1.8.4H72a1.3 1.3 0 0 1-1.2-1.6s-3.2 3.2-7 2.4-3.8-6-3.8-6-5.6 9-10.1 6.9-4-8.5-4-8.5 0-5 4.6-5.4a12 12 0 0 1 10 3.6c.5.6-.5 3.5-.5 3.5s1.8-2.6 3.7-3.3 11.8-4 11.8-1.7-3.2 7-3.5 7.4a50.3 50.3 0 0 0 4.1-4.4 57.1 57.1 0 0 1 9.4-8.1.9.9 0 0 1 .3-.1c.7-.2 1.1 3 1.1 3 2.7-1 6.7-4.4 7.5-5.1-.5.4-2.5 1.8-3.8.9Zm-52.2 9.3C34.6 83.9 34.1 75 35 71.1c.4-1.5 3.9-2.7 4.6-2s1 8.9 2.8 11.7-.5 8-4.1 5.5Z"
      opacity=".6" style="mix-blend-mode:multiply" />
    <path fill="#e64592"
      d="M85.5 78.4c-1.7 4.2-4.9 10-9.4 13a27.8 27.8 0 0 1-4 2.1A39 39 0 0 1 65 96l-3 .6a31.5 31.5 0 0 1-14.3-1 24 24 0 0 1-7-3.4c-11.3-8.4-10.8-31.7-10.7-33a.2.2 0 0 0 0-.2h2.5c-.1 3 .2 6 1.9 7.3 4 3 7.8-1.6 7.8-1.6s-3 12.7 3.5 15.4 11.2-5.3 11.2-5.3 0 8.2 5.7 9 11.2-7.6 11.2-7.6a5 5 0 0 0 4 5.4c3.3.9 7.6-5.4 9.4-8.3l.1.2a33 33 0 0 1-1.7 4.9Z"
      opacity=".8" style="mix-blend-mode:multiply" />
    <path fill="#ffd8ff"
      d="M62 63.6C58.5 64.9 58 74 63.4 79s9.2-2.6 10.5-6.8-2.8-12-11.9-8.6Zm15.1-.6c-2.2 1.7-.5 11.1 2.9 12.9s7.9-1.2 8.2-8-8.3-7-11-4.9Zm12.7-5.2c-3.4 2.7-.6 8 3 11.1s9.5-5.3 7.6-9.6-7-4.2-10.6-1.5ZM46 45.8c0 2-10.7 1.2-14.2-1.3s-2.5-7.9-.2-9.2 13.7 2.6 14.3 10.5Zm12.2-16.3c-3 .5-4.8 11.3-.1 13.9S69.8 42 70.5 39s-7.4-10.5-12.3-9.6Zm16.3 9.3c-1.2.3-5.3 3.3-3 7s13.7 3.5 14.8-.3-7.4-8-11.8-6.8Z"
      opacity=".3" style="mix-blend-mode:soft-light" />
    <path fill="#ffd8ff"
      d="M64.4 83.9c-2-1.2 5.1-5.1 6-5.2s-2.2 4.4-6 5.2Zm-.4 9.9c-2.2-1.5 5.4-5.3 7.4-5.5s-1.7 7.4-7.4 5.5ZM46.3 80.2c-2.2-1.5 5.4-5.3 7.4-5.5s-1.7 7.4-7.4 5.5Zm30.5.8c-1.4-1 3.5-3.5 4.8-3.6s-1.1 4.8-4.8 3.5ZM53.3 99.5c-1.1-1.4 4.3-2.4 5.6-2.1s-2.4 4.3-5.6 2Zm22.4-7.1c-.8-1.5 6.3-6 7.5-6.7s-2 6-7.5 6.7Zm17.1-15.2c-1.1-1.3 4.5-7.4 5.5-8.4s-.3 6.3-5.5 8.4ZM50.8 95c-1.3-.4 3.4-3.4 4.8-3.3S54.2 96 50.8 95Z"
      style="mix-blend-mode:soft-light" />
    <path fill="#ffd8ff" d="M70.2 66.7c-2.6.3-1.8 4.5.6 4.9s2.3-5.3-.6-5Z" />
    <path fill="#ffd8ff"
      d="M52 62.1c-1.6-2-4.6 1-3.6 3.2s5.6-1 3.7-3.2Zm2.2 21.5c-2-2.2-5.4 1.6-4 4s6.4-1.6 4-4ZM36.3 72.7c-1.7 1-1.5 5.4 0 5.2s2-6.3 0-5.2Z"
      style="mix-blend-mode:soft-light" />
    <path fill="#ffd8ff"
      d="M83.7 65.7c-1-.3-.6 2.7.6 2.5s.3-2.2-.6-2.5Zm9.6-7c-.8.5 1.7 2.2 2.3 1.2s-1.5-1.7-2.3-1.2Z" />
    <path fill="#ffd8ff" d="M38.9 52.8c-3-1.3 2.3-3.8 5.1-2.1s-1 4-5.1 2.1Z" opacity=".3"
      style="mix-blend-mode:soft-light" />
    <path fill="#ffd8ff" d="M47.3 30.6c-2.5-.8-.2 3 1.3 3s.1-2.5-1.3-3Z" />
    <path fill="#ffd8ff"
      d="M55.3 51.4c-4.2-2.4-3.3 4.6.2 6s4.1-3.6-.2-6Zm9.7 1.4c-3.4-1.3-5.2 4.8-4.2 7s5.5.5 6.7-1-1.4-5.6-2.6-6Z"
      opacity=".3" style="mix-blend-mode:soft-light" />
    <path fill="#ca0092"
      d="M52.2 79.5c1.8-1.4 3.5-.7 4.8.8s-.5-4.3-.6-5-2.2 2.8-4.2 4.2Zm17.5 1.8a3.2 3.2 0 0 1 4.3-.8l-.3-4.3Zm-31-13.8c1-.8 2.6 1.6 2.6 1.6l.5-4Zm43.9-6.2a11.2 11.2 0 0 1 5.6 1.7c2.3 1.7.1 6.8.1 6.8s1.4-7.3-5.7-8.5Zm-10.4 3.2S76 71 73.7 76.2c0 0 4.5-7.5-1.5-11.7Zm-20-5.3s-5.7-.3-10.1 5.5a8.8 8.8 0 0 1 10-5.5Zm-19-7.2a10.3 10.3 0 0 1 12.5-3.5s-8.3-4.9-12.5 3.6ZM38 86.3c.8 1.5 1.3 3.8 1.8 3.8s.9-2.2 1.6-2.8-1.8-.2-3.4-1Zm22.7 7.5c-.7.5-4 .6-4.2-.1s2.4-3.5 3-4.2 1.5 4 1.2 4.3Zm7.3 0a17 17 0 0 0 3-.2c.4-.2-.3-1.6-.3-1.6a9.3 9.3 0 0 1-2.7 1.8Zm29.8-37.5a3.7 3.7 0 0 0-1-2.7c-1.3-1-7.3 2.6-7.3 2.6a27.2 27.2 0 0 1 8.3 0Zm-44-24.7a24.2 24.2 0 0 1-.8 9.8s2.5-5.3.8-9.8Zm-18.2 3a15.6 15.6 0 0 1 9.3 4.3 6.8 6.8 0 0 1 1.1 8.7s2.5-8.3-10.4-13Z"
      opacity=".7" style="mix-blend-mode:multiply" />
    <path fill="#ffd8ff"
      d="M71.2 54.3c-1.3-2 7.7-3 8.4-2.2s-6.2 5.4-8.4 2.2Zm-12.7-5.1c-1.6-.6 6-4 7-3.5s-3.8 4.7-7 3.5Z"
      style="mix-blend-mode:soft-light" />
  </g>
</svg>