<svg xmlns="http://www.w3.org/2000/svg" xmlns:xlink="http://www.w3.org/1999/xlink"
  viewBox="0 0 128 128">
  <defs>
    <linearGradient id="b8dc8149-9d3d-4074-9c7f-bbcbc8e72390" x1="0.59" y1="653.83" x2="0.59"
      y2="624.89" gradientTransform="translate(-52.63 -575.21) rotate(-9.45)"
      gradientUnits="userSpaceOnUse">
      <stop offset="0" stop-color="#ff2c00" />
      <stop offset="1" stop-color="#bb001d" />
    </linearGradient>
    <linearGradient id="b42e07da-2344-4dc9-a226-1c9d3e714b87" x1="-17.14" y1="638.84" x2="31.91"
      y2="638.84" gradientTransform="matrix(0.95, -0.3, 0.3, 0.95, -139.65, -554.29)"
      gradientUnits="userSpaceOnUse">
      <stop offset="0" stop-color="#84a600" />
      <stop offset="1" stop-color="#b5ce00" />
    </linearGradient>
    <linearGradient id="b8e3cc9b-b3a8-452a-8541-6d19bc83366b" x1="-18.29" y1="659.29" x2="-18.29"
      y2="630.35" gradientTransform="translate(211.64 -554.6) rotate(14.12)"
      gradientUnits="userSpaceOnUse">
      <stop offset="0" stop-color="#ff2d00" />
      <stop offset="1" stop-color="#ff001d" />
    </linearGradient>
    <linearGradient id="ea5c6723-f380-4f6c-b3a0-462ede897b51" x1="36.44" y1="668.3" x2="36.44"
      y2="639.36" gradientTransform="matrix(0.99, 0.17, -0.17, 0.99, 164.28, -592.36)"
      xlink:href="#b8e3cc9b-b3a8-452a-8541-6d19bc83366b" />
    <linearGradient id="a0882957-2bfc-4568-9a7c-82b31976ee24" x1="-4.55" y1="686.87" x2="-4.55"
      y2="657.93" gradientTransform="matrix(0.97, -0.23, 0.23, 0.97, -90.03, -567.49)"
      xlink:href="#b8e3cc9b-b3a8-452a-8541-6d19bc83366b" />
  </defs>
  <g style="isolation:isolate">
    <g id="fded94c2-2ba6-47a8-a46f-b41e9c8714f3" data-name="layer1">
      <circle cx="52.92" cy="55.41" r="14.47" transform="translate(-7.22 7.93) rotate(-8.03)"
        fill="url(#b8dc8149-9d3d-4074-9c7f-bbcbc8e72390)" />
      <path
        d="M42.52,46.87C37.75,50,45.07,60,51.48,63.29S67,57.5,63.62,49.24,52.2,40.43,42.52,46.87Z"
        fill="#e64592" style="mix-blend-mode:multiply" />
      <path d="M41,52.16c2.19-5.79,15,5.48,18,9.35s-2.58,8.38-8.33,7.59S37.92,60.44,41,52.16Z"
        fill="#ca0092" style="mix-blend-mode:multiply" />
      <path
        d="M84,49.71l-.86,5.56h0l-.32,2-1.39-.15c-1.81-.22-5-.61-7-1,0,0,0,0,0,0a9.24,9.24,0,0,1-1-.21c-2.46-.6-1.68,3.24-4.81,7.06s-5.91,4.85-8.22,6l-.69.36c-1.89,1-2.69,5.9-3,8-.08.59-.11,1-.11,1l-6.12.82s.55-1.17,1.25-2.69c1-2.13,2.26-5,2.77-6.2a1.66,1.66,0,0,0,.06-.16c.77-1.92-13.09,1-16.19-2.11l3.13-2.89a22.08,22.08,0,0,0,18.35.83c8.8-3.39,9.86-10.05,9.31-12.46a1.45,1.45,0,0,0-.4-.83c-1.07-.83-5.86,4.37-8.24,4.87,0,0-5-.87-1.73-5.48.6-.83,6.56,1.55,9.23-.59a1.73,1.73,0,0,0,.28-.26c2.5-2.56.66-15.16-3.9-23.51,0,0,4.77-3.46,6.61-2.43,0,0,3,8.88.65,23.09a2.33,2.33,0,0,0,1.81,2.94s0,0,0,0C76.91,52.25,84,49.71,84,49.71Z"
        fill="url(#b42e07da-2344-4dc9-a226-1c9d3e714b87)" />
      <circle cx="36.54" cy="66.3" r="14.47" transform="translate(-29.32 28.98) rotate(-31.6)"
        fill="url(#b8e3cc9b-b3a8-452a-8541-6d19bc83366b)" />
      <path
        d="M27.34,71.62C24.6,69,19.88,57,32.93,53.87S47.33,60.94,46.48,64,29.14,73.33,27.34,71.62Z"
        fill="#e64592" style="mix-blend-mode:multiply" />
      <path d="M27.69,76.9c-.62-.79,6.73,2.09,7,2.93S30.29,80.22,27.69,76.9Z" fill="#591f4a" />
      <path d="M30.55,54.09c-9.06,4.52-4.84,9.46,5.28,6.11S38.85,50,30.55,54.09Z" fill="#ffffc7"
        style="mix-blend-mode:soft-light" />
      <path d="M43.07,45.93c-4.32,6,1.34,2.58,9.9-1.38S47.91,39.2,43.07,45.93Z" fill="#ffffc7"
        style="mix-blend-mode:soft-light" />
      <path d="M45.88,44.48c-1.5,1.91.07,1.36,2.78-.88S46.42,43.78,45.88,44.48Z" fill="#fff" />
      <path d="M28.38,56.22c-1.63,1.43.42,2,2.77.42S31.16,53.78,28.38,56.22Z" fill="#fff" />
      <path
        d="M84,49.71l-.86,5.56h0a6.86,6.86,0,0,1-1.71,1.87c-1.81-.22-5-.61-7-1,0,0,0,0,0,0-4.32-2-6.41-3.6-1-4.86,0,0,0,0,0,0C76.91,52.25,84,49.71,84,49.71Z"
        fill="#e6b692" opacity="0.8" style="mix-blend-mode:multiply" />
      <path
        d="M69.07,53.47a1.45,1.45,0,0,0-.4-.83c-1.07-.83-5.86,4.37-8.24,4.87,0,0-5-.87-1.73-5.48.6-.83,6.56,1.55,9.23-.59C69.11,51.53,70.24,51.84,69.07,53.47Z"
        fill="#e6b692" opacity="0.8" style="mix-blend-mode:multiply" />
      <path
        d="M60.26,69l-.69.36c-1.89,1-2.69,5.9-3,8l-5-.9c1-2.13,2.26-5,2.77-6.2a6.59,6.59,0,0,1,1.71-1A6,6,0,0,1,60.26,69Z"
        fill="#e6b692" opacity="0.8" style="mix-blend-mode:multiply" />
      <circle cx="91.46" cy="58.45" r="14.47" transform="translate(-16.58 47.98) rotate(-27.05)"
        fill="url(#ea5c6723-f380-4f6c-b3a0-462ede897b51)" />
      <path
        d="M79.18,60.8c4.55,6.69,7.73-.63,12.51-2.56S100.8,53.6,100,50s-7.81-8.46-16.2-4S78.59,59.93,79.18,60.8Z"
        fill="#e64592" style="mix-blend-mode:multiply" />
      <path d="M97,64.67c-2.49-2.94,2.9-8.41,5.93-6.94S100.65,69.05,97,64.67Z" fill="#591f4a" />
      <path d="M83,46.7c-7.37,4.72,4.89,4.67,12.52,2.8S93.33,40.08,83,46.7Z" fill="#ffffc7"
        style="mix-blend-mode:soft-light" />
      <path d="M92.71,47.2c-1,3.45,2.4,6.37,4,3.31S93.13,45.72,92.71,47.2Z" fill="#fff" />
      <circle cx="57.93" cy="88.48" r="14.47" transform="translate(-6.58 4.68) rotate(-4.38)"
        fill="url(#a0882957-2bfc-4568-9a7c-82b31976ee24)" />
      <path d="M86.34,72c-3.66-4.73,11.44-6,14.79-5.43S94.89,74.87,86.34,72Z" fill="#ffffc7"
        opacity="0.5" style="mix-blend-mode:soft-light" />
      <path d="M52,100.55c-4-2.15,3-5.77,11.43-6.85S65.69,107.93,52,100.55Z" fill="#ffffc7"
        opacity="0.5" style="mix-blend-mode:soft-light" />
      <path d="M45.09,91.05c2.22,5.62,12.72-2.23,19.69-2.67s4.3-14.83-8-13.47S44,88.21,45.09,91.05Z"
        fill="#e64592" style="mix-blend-mode:multiply" />
      <path d="M55.83,101.55C54,100,61.58,97.4,63.5,99.13S58.53,103.75,55.83,101.55Z" fill="#591f4a" />
      <path d="M55.25,75.58c-6.13,2.82-.64,9.16,7.73,8.33S64,71.56,55.25,75.58Z" fill="#ffffc7"
        style="mix-blend-mode:soft-light" />
      <path d="M61.9,79.28c-1.31,1-1.56,2.86,1.12,2.33S63,78.52,61.9,79.28Z" fill="#fff" />
      <path d="M64.31,27.67s5.32.23,6.61-2.43A6.84,6.84,0,0,0,64.31,27.67Z" fill="#ffe592" />
      <path d="M36.32,80.11C34.45,78,43.77,73,47.36,72S46.7,81.58,36.32,80.11Z" fill="#ffffc7"
        opacity="0.5" style="mix-blend-mode:soft-light" />
      <path d="M38.28,68c-10.14,1,3.13-11.38,5.62-11.36s4.25,5.87,2.21,8.05S38.28,68,38.28,68Z"
        fill="#e64592" style="mix-blend-mode:multiply" />
      <path d="M86.34,61.47c-5.06,1.92-8.3-5.85-6.65-8.35s9.77-1.6,12.53.39S87.61,61,86.34,61.47Z"
        fill="#e64592" style="mix-blend-mode:multiply" />
      <path
        d="M46.43,91.19c4.36,3.56,9.19-2.87,9.09-5.79S52,79.74,50,79.44,41.74,87.37,46.43,91.19Z"
        fill="#e64592" style="mix-blend-mode:multiply" />
    </g>
  </g>
</svg>