<svg xmlns="http://www.w3.org/2000/svg" viewBox="0 0 128 128">
  <defs>
    <linearGradient id="fe352e83-cded-44d6-8ef7-23f0ebdeaf59" x1="32.9" x2="32.9" y1="-356.5"
      y2="-425"
      gradientTransform="rotate(14 -1804.4 -51.7)" gradientUnits="userSpaceOnUse">
      <stop offset="0" stop-color="#cf0034" />
      <stop offset=".2" stop-color="#db002d" />
      <stop offset=".7" stop-color="#ef0021" />
      <stop offset="1" stop-color="#f6001d" />
    </linearGradient>
    <linearGradient id="f09d816e-490d-4f53-88ed-71cd02d3d213" x1="36.4" x2="100.6" y1="41.1"
      y2="41.1" gradientUnits="userSpaceOnUse">
      <stop offset="0" stop-color="#84a600" />
      <stop offset="1" stop-color="#b5ce00" />
    </linearGradient>
  </defs>
  <g data-name="layer1" style="isolation:isolate">
    <path fill="url(#fe352e83-cded-44d6-8ef7-23f0ebdeaf59)"
      d="M47.5 108.4c-4.4-1.9-13.7-17.6-18.8-33.4-4.7-14.5-6-29 3.4-33 8.3-3.6 26.1-1.9 41.8 2.6 16 4.5 29.7 11.8 29 19.3-2.2 23-46.8 48.2-55.4 44.5Z" />
    <path fill="#ce1374"
      d="M69.8 47.2c-6.1-3.2 9.7 6.3-4 28.3C57.3 89 25.3 76.5 51 107c2.7 3.1 35.6-10.4 44.8-35.2s-26-24.6-26-24.6Z"
      opacity=".8" style="mix-blend-mode:multiply" />
    <path fill="#dd8192" d="M34.7 44c-3.9-1.1-10.4 11-6.5 12.3s11.3-11 6.5-12.4Z"
      style="mix-blend-mode:multiply" />
    <path fill="#dd8192" d="M27.9 49.3c-.6 1.2 4-3 5.8-3s0 3.6.6 3.8 3.5-5.3.8-6.4-7.2 5.5-7.2 5.5Z"
      style="mix-blend-mode:multiply" />
    <path fill="#ff6b7c"
      d="M26.8 52.7c0-.2 0 3 1.9 3.3s4.2-2.8 4.2-2.8-2.2 4-4.5 3.9-1.6-4.4-1.6-4.4Z" />
    <path fill="#ffac2c" d="M34.1 45c-2.4-.6-7.9 9.1-5.2 9.8s8.3-9 5.2-9.8Z" />
    <path fill="#e08192"
      d="M29.6 48.7s-3 4.5-.2 5.4 6.2-8.4 4.7-9.2c0 0 1.5 0 1.1 1.7s-2.8 8.9-5.8 8.8-2.2-3.6.2-6.7Z"
      style="mix-blend-mode:multiply" />
    <path fill="#dd8192" d="M50.2 47.9c-4-1-9 11.5-5 12.7s9.7-11.4 5-12.7Z"
      style="mix-blend-mode:multiply" />
    <path fill="#dd8192"
      d="M44.4 53.5c-.5 1.2 3.4-3.2 5.2-3.2s.5 3.8 1 4 2.7-5.6-.1-6.7-6.1 5.9-6.1 5.9Z"
      style="mix-blend-mode:multiply" />
    <path fill="#ff6b7c" d="M43.6 57c0-.2.1 3 2 3.3s4-2.8 4-2.8-2 4-4.2 4-1.8-4.5-1.8-4.5Z" />
    <path fill="#ffac2c" d="M49.8 49c-2.5-.6-6.7 9.4-4 10.1s7-9.4 4-10.1Z" />
    <path fill="#e08192"
      d="M46 52.9s-2.5 4.6.2 5.5 5.1-8.6 3.5-9.4c0 0 1.4-.1 1.4 1.7s-1.8 9.1-4.7 9-2.4-3.6-.5-6.8Z"
      style="mix-blend-mode:multiply" />
    <path fill="#dd8192" d="M65.6 51.9c-4-1.1-7.4 11.8-3.4 13s8.2-11.7 3.4-13Z"
      style="mix-blend-mode:multiply" />
    <path fill="#dd8192"
      d="M60.8 57.7c-.3 1.3 2.9-3.3 4.7-3.4s1 4 1.6 4.2 1.6-5.8-1.3-7-5 6.2-5 6.2Z"
      style="mix-blend-mode:multiply" />
    <path fill="#ff6b7c" d="M60.4 61.3c0-.2.3 3 2.2 3.4s3.7-3 3.7-3-1.6 4.3-4 4-2-4.4-2-4.4Z" />
    <path fill="#f05b2c" d="M65.4 53c-2.5-.7-5.4 9.7-2.7 10.4s5.8-9.7 2.7-10.4Z" />
    <path fill="#e08192"
      d="M62.3 57s-2 4.9.8 5.7 3.9-9 2.3-9.7c0 0 1.3 0 1.5 1.8s-.7 9.4-3.6 9.4-2.5-3.8-1-7.1Z"
      style="mix-blend-mode:multiply" />
    <path fill="#dd8192" d="M81 55.8c-4-1-5.8 12.3-1.8 13.6S85.8 57 81 55.7Z"
      style="mix-blend-mode:multiply" />
    <path fill="#dd8192"
      d="M77.3 62c-.1 1.3 2.3-3.5 4-3.6s1.5 4 2.1 4.3.7-6-2.3-7.2-3.8 6.4-3.8 6.4Z"
      style="mix-blend-mode:multiply" />
    <path fill="#ff6b7c"
      d="M77.2 65.7c0-.3.5 3 2.4 3.3s3.5-3 3.5-3-1.4 4.3-3.7 4.1-2.2-4.4-2.2-4.4Z" />
    <path fill="#f05b2c" d="M81 57c-2.5-.6-4.1 10-1.4 10.8S84 57.8 81 57Z" />
    <path fill="#e08192"
      d="M78.6 61.3S77.2 66.2 80 67s2.8-9.2 1.1-10c0 0 1.3-.1 1.8 1.8s.3 9.7-2.6 9.7-2.6-3.8-1.6-7.2Z"
      style="mix-blend-mode:multiply" />
    <path fill="#dd8192" d="M96.4 59.8c-4-1.1-4.2 12.6-.3 14s5.1-12.7.3-14Z"
      style="mix-blend-mode:multiply" />
    <path fill="#dd8192"
      d="M93.8 66.1c0 1.4 1.8-3.5 3.4-3.6s2 4.2 2.6 4.4-.3-6.3-3.3-7.5-2.8 6.7-2.8 6.7Z"
      style="mix-blend-mode:multiply" />
    <path fill="#ff6b7c" d="M94 70c0-.2.7 3.1 2.6 3.4s3.2-3 3.2-3-1.1 4.4-3.4 4.2S94 70 94 70Z" />
    <path fill="#ff882c" d="M96.6 61c-2.4-.6-2.8 10.4-.1 11s3.2-10.2.1-11Z" />
    <path fill="#e08192"
      d="M95 65.5s-1 5 1.8 5.9 1.6-9.6-.1-10.4c0 0 1.2-.1 2 1.8s1.3 10-1.6 10-2.7-3.8-2.1-7.3Z"
      style="mix-blend-mode:multiply" />
    <path fill="#dd8192" d="M35 64c-4.4-1.3-5.4 10.4-1.6 11.6s6.9-10.2 1.6-11.7Z"
      style="mix-blend-mode:multiply" />
    <path fill="#dd8192"
      d="M30.8 69.1c0 1.2 2.4-2.9 4.2-2.9s1.5 3.6 2 3.8 1.4-5.2-1.8-6.4-4.4 5.5-4.4 5.5Z"
      style="mix-blend-mode:multiply" />
    <path fill="#ff6b7c" d="M31 72.4c0-.2.9 2.6 2.7 3s3-2.4 3-2.4-1 3.5-3 3.3-2.7-4-2.7-4Z" />
    <path fill="#ff882c" d="M34.8 65c-2.6-.7-3.9 8.6-1.3 9.3s4.7-8.5 1.3-9.3Z" />
    <path fill="#e08192"
      d="M32.1 68.6s-1 4.2 1.7 5 2.9-7.8 1-8.7a2 2 0 0 1 1.8 1.7c.4 1.7.3 8.3-2.4 8.2s-3-3.2-2.1-6.2Z"
      style="mix-blend-mode:multiply" />
    <path fill="#dd8192" d="M52 68.3c-4.4-1.2-6.2 10.3-2.5 11.4s7.8-10 2.5-11.4Z"
      style="mix-blend-mode:multiply" />
    <path fill="#dd8192"
      d="M47.5 73.4c0 1.2 2.7-2.8 4.5-2.8s1.3 3.6 1.9 3.8 1.6-5.2-1.6-6.4-4.8 5.4-4.8 5.4Z"
      style="mix-blend-mode:multiply" />
    <path fill="#ff6b7c"
      d="M47.5 76.6c0-.2.6 2.6 2.5 2.9s3.3-2.3 3.3-2.3-1.3 3.4-3.5 3.2-2.3-3.8-2.3-3.8Z" />
    <path fill="#ff882c" d="M51.9 69.3c-2.7-.7-4.6 8.4-2 9.1s5.3-8.2 2-9Z" />
    <path fill="#e08192"
      d="M49 73s-1.5 4 1.2 4.9 3.5-7.8 1.7-8.6a1.9 1.9 0 0 1 1.7 1.7c.3 1.7-.3 8.2-3 8s-2.9-3.1-1.7-6Z"
      style="mix-blend-mode:multiply" />
    <path fill="#dd8192" d="M69 72.7c-4.3-1.2-7 10-3.2 11.2S74.4 74 69 72.7Z"
      style="mix-blend-mode:multiply" />
    <path fill="#dd8192"
      d="M64.3 77.7C64.1 79 67.2 75 69 75s1.1 3.6 1.7 3.8 1.8-5.1-1.4-6.3-5 5.3-5 5.3Z"
      style="mix-blend-mode:multiply" />
    <path fill="#ff6b7c"
      d="M64 80.8c0-.2.3 2.5 2.2 2.8s3.7-2.2 3.7-2.2-1.8 3.4-4 3.1-1.9-3.7-1.9-3.7Z" />
    <path fill="#f05b2c" d="M69 73.7c-2.8-.7-5.3 8.2-2.7 9s6-8.2 2.6-9Z" />
    <path fill="#e08192"
      d="M65.8 77.3s-1.8 4 .9 4.8 4-7.6 2.2-8.4a1.8 1.8 0 0 1 1.7 1.6c.3 1.7-1 8-3.7 8s-2.5-3.2-1.1-6Z"
      style="mix-blend-mode:multiply" />
    <path fill="#dd8192" d="M86.1 77c-4.4-1.2-7.9 9.8-4.1 11s9.4-9.5 4.1-11Z"
      style="mix-blend-mode:multiply" />
    <path fill="#dd8192" d="M81.1 82c-.3 1.1 3-2.8 5-2.7s.9 3.5 1.5 3.7 2-5-1.2-6.2S81 82 81 82Z"
      style="mix-blend-mode:multiply" />
    <path fill="#ff6b7c" d="M80.5 85c0-.1 0 2.5 2 2.8s4-2.1 4-2.1-2.2 3.2-4.4 3-1.6-3.7-1.6-3.7Z" />
    <path fill="#ff882c" d="M86 78c-2.7-.6-6 8.1-3.3 8.8s6.6-7.9 3.2-8.8Z" />
    <path fill="#e08192"
      d="M82.6 81.6s-2.2 3.9.5 4.7 4.6-7.4 2.8-8.2a1.7 1.7 0 0 1 1.7 1.6c.2 1.7-1.5 7.8-4.4 7.7s-2.2-3-.6-5.8Z"
      style="mix-blend-mode:multiply" />
    <path fill="#dd8192" d="M39.4 81.3c-4-1-3 8.3.2 9.3s4.6-8-.2-9.3Z"
      style="mix-blend-mode:multiply" />
    <path fill="#dd8192"
      d="M36.6 85.5c.2 1 1.6-2.3 3.2-2.2s1.7 2.9 2.2 3 .5-4.1-2.5-5.2-2.9 4.4-2.9 4.4Z"
      style="mix-blend-mode:multiply" />
    <path fill="#ff6b7c" d="M37.3 88s1 2.1 2.6 2.4 2.1-1.8 2.1-1.8-.4 2.7-2 2.5-2.7-3-2.7-3Z" />
    <path fill="#ff882c" d="M39.4 82.2c-2.4-.6-2 6.8.2 7.3s2.9-6.5-.2-7.3Z" />
    <path fill="#e08192"
      d="M37.7 85.1s-.3 3.3 2 4 1.4-6.2-.3-6.9a2.1 2.1 0 0 1 1.8 1.4c.5 1.4 1.1 6.6-1 6.5s-2.9-2.6-2.5-5Z"
      style="mix-blend-mode:multiply" />
    <path fill="#dd8192" d="M55 85.3c-4-1-5 7.8-2 8.7s6.8-7.3 2-8.7Z"
      style="mix-blend-mode:multiply" />
    <path fill="#dd8192" d="M51.2 89.2c0 1 2.2-2.1 3.8-2s1.2 2.7 1.7 3 1.4-4-1.5-5-4 4-4 4Z"
      style="mix-blend-mode:multiply" />
    <path fill="#ff6b7c" d="M51.3 91.6s.5 2 2 2.2 2.9-1.6 2.9-1.6-1.2 2.5-3 2.3-2-2.9-2-2.9Z" />
    <path fill="#f05b2c" d="M54.9 86.2c-2.5-.7-3.8 6.3-1.6 6.9s4.6-6.2 1.6-7Z" />
    <path fill="#e08192"
      d="M52.4 88.9s-1.1 3.1 1.2 3.8 2.9-5.8 1.2-6.5a1.8 1.8 0 0 1 1.7 1.3c.3 1.3-.4 6.2-2.7 6s-2.3-2.4-1.4-4.6Z"
      style="mix-blend-mode:multiply" />
    <path fill="#dd8192" d="M70.5 89.3c-4-1-7.2 7.2-4 8.2s8.8-6.9 4-8.2Z"
      style="mix-blend-mode:multiply" />
    <path fill="#dd8192" d="M65.8 93c-.3.8 2.7-2 4.5-2s.6 2.7 1.1 3 2.3-3.8-.6-4.8-5 3.8-5 3.8Z"
      style="mix-blend-mode:multiply" />
    <path fill="#ff6b7c"
      d="M65.2 95.2c0-.1 0 1.8 1.6 2.1s3.5-1.4 3.5-1.4-2 2.2-3.8 2-1.3-2.7-1.3-2.7Z" />
    <path fill="#f05b2c" d="M70.3 90.1c-2.5-.6-5.5 5.9-3.3 6.5s6.3-5.7 3.3-6.5Z" />
    <path fill="#e08192"
      d="M67.1 92.7s-2 2.8.3 3.5 4.4-5.4 2.9-6.1c0 0 1.3 0 1.4 1.3s-1.8 5.8-4.3 5.6-1.8-2.3-.3-4.3Z"
      style="mix-blend-mode:multiply" />
    <path fill="#dd8192" d="M46.4 94.8c-3.3-.9-2 5.8.3 6.5s3.6-5.4-.3-6.5Z"
      style="mix-blend-mode:multiply" />
    <path fill="#dd8192" d="M44.4 97.8c0 .6 1-1.7 2.3-1.6s1.4 2.1 1.8 2.3.4-3-2-3.8-2.1 3-2.1 3Z"
      style="mix-blend-mode:multiply" />
    <path fill="#ff6b7c" d="M45 99.6c0-.1.8 1.4 1.8 1.6s1.7-1.2 1.7-1.2-.4 1.8-1.6 1.7-2-2.1-2-2.1Z" />
    <path fill="#f05b2c" d="M46.4 95.4c-2-.5-1.4 4.8.2 5.2s2.3-4.5-.2-5.2Z" />
    <path fill="#e08192"
      d="M45.1 97.5s0 2.3 1.6 2.8 1-4.3-.3-4.9a1.8 1.8 0 0 1 1.5 1.1c.4 1 .8 4.6-.8 4.5s-2.2-1.8-2-3.5Z"
      style="mix-blend-mode:multiply" />
    <path fill="#dd8192" d="M59 98c-3.3-.9-5 5-2.7 5.8s6.5-4.7 2.6-5.8Z"
      style="mix-blend-mode:multiply" />
    <path fill="#dd8192"
      d="M55.5 100.6c-.1.6 2-1.4 3.3-1.3s.6 2 1 2 1.7-2.6-.6-3.5-3.7 2.8-3.7 2.8Z"
      style="mix-blend-mode:multiply" />
    <path fill="#ff6b7c" d="M55.3 102.2s.1 1.3 1.3 1.5 2.4-1 2.4-1-1.4 1.5-2.7 1.4-1-1.9-1-1.9Z" />
    <path fill="#f05b2c" d="M58.8 98.6c-2-.5-3.7 4.2-2.1 4.6s4.5-4 2-4.6Z" />
    <path fill="#e08192"
      d="M56.5 100.4s-1.2 2 .4 2.5 3.2-3.8 1.9-4.3c0 0 1 0 1.2 1s-1.3 4-3 4-1.5-1.7-.5-3.2Z"
      style="mix-blend-mode:multiply" />
    <path fill="#ffd8ff"
      d="M60.1 57.1c1.7-5.8 5-5.3 3.3-7.5s-6-2-15.2-2.7-13.1-4.8-13.4-4.6 3.5 2 2.6 6.4-8 10.2-8 10.2c0 2.7 7 4.2 8.2 5.2s2.5 8.5 1.1 11.4-5.9-.9-6 1.8a26.2 26.2 0 0 0 .9 7.5c.4.9 3.9-4.4 5.8-4.4s3.6 3.5 3.6 7 4.5-3.2 5-5.4-3-6.3 0-12.6 6.4-2.9 7 1.4 3 .7 4.4-2-1-5.9.7-11.7Zm-13 5.5C41.4 64.2 42 50.1 46 48s8.1-.1 8.6 3.4-5 10.6-7.4 11.2Z"
      style="mix-blend-mode:soft-light" />
    <path fill="#fff9ff"
      d="M56 106.8c8.2-1.3 4.4-8.3 5.4-10.2s5 3 8.2 2.1 5.6-7.9 2.9-9.8-4-2.7.2-8.1-1.5-11-.4-12.4 4.3 2 7.8 2.5 4.9-6.5 5.7-8.2 7.4 5.3 7.4 9.6-4.6 1-9 3.7-5.6 11.6-5 13.7 7.4-3.9 8.9-4-16.8 18.5-32 21Z"
      style="mix-blend-mode:soft-light" />
    <path fill="#fff9ff"
      d="M56 106.8c8.2-1.3 4.4-8.3 5.4-10.2s5 3 8.2 2.1 5.6-7.9 2.9-9.8-4-2.7.2-8.1-1.5-11-.4-12.4 4.3 2 7.8 2.5 4.9-6.5 5.7-8.2 7.4 5.3 7.4 9.6-4.6 1-9 3.7-5.6 11.6-5 13.7 7.4-3.9 8.9-4-16.8 18.5-32 21Z"
      style="mix-blend-mode:soft-light" />
    <path fill="#fff"
      d="M44.2 47.5c1.6-3.2-4.8-3.2-5.5-.7s-2.6 9.3-5 10.9 7 5.5 8.2 9 7-2 10-2.4 1 4.9 3.9 4.6 4.3-15.5 5.8-17.7-6.8-4.6-7-3.8.7 3.3-1.2 7.8-4.2 10.2-9 6.7-1.6-11.7-.2-14.4ZM41.2 76.1c-2.5-.6-2 1.6.5 4.6s4.7 1 4.5-1.8-2.5-2.2-5-2.8Z" />
    <path fill="#ffd8ff" d="M99 73.4c-1.3 1.7-4 .7-5.4 2.1s-4.2 8.2-4 8.9 5.8-3.7 9.4-11Z" />
    <path fill="#fff9ff"
      d="M33.6 86.4c-.1-1.6 6.8 7 8.2 7.9s1-3.5 3-3.5-2.4 7 .5 11.2 2.6-2.8 5.5-3.3 2 6.7 5.5 7 11.1-3.2 11.1-3.2-14.2 8-19.9 5.9-14-22-14-22Z"
      style="mix-blend-mode:soft-light" />
    <path fill="#7c8b00"
      d="M68.6 40C60.9 39 58.4 21.6 56 20.7s-12.5 14-3.7 19.7a14 14 0 0 0 16.3-.4Z" />
    <path fill="url(#f09d816e-490d-4f53-88ed-71cd02d3d213)"
      d="M100.6 35.2c-.1 3.8-3.1 16.7-10.3 15.6a7.1 7.1 0 0 1-1.1-.4H89c-3.3-1.3-9.6-5.2-9.8-4.1-.3 1.1 14.5 3.3 9.5 16.6-.5 1.3-10.5-6-16.1-10.5-4-3.2-8.8-8.7-13.2-9.7s-16 3.4-21-2.3 0-15 .7-13.4C43 37.4 59.5 40.2 59.5 40.2a11.4 11.4 0 0 0 4.4.4c3.2-.4 5.2-2.6 6.3-6.3.7-2.1.3-5.1-.2-8-.7-4-1.4-7.4 1-7 4 .6 6.4 10.4 6.4 10.4a33.2 33.2 0 0 0-4.2 6.9c-.9 2.1-1 3.6 2 4.9 11.3 4.9 24.5-8.3 25.2-7.3a1.9 1.9 0 0 1 .2 1Z" />
    <path fill="#b5cf00" d="M71 19.2c-4.3 1.6 2.2 11.3 4 11.5s2.3-1.7 2.3-1.7-1.2-8-6.3-9.8Z" />
    <path fill="#ca9892"
      d="M75.2 41.5c-3.3 1.8-8.5 3.1-11.3-.9 3.2-.4 5.2-2.6 6.4-6.3a19 19 0 0 0-.3-8 17.8 17.8 0 0 0 3.4 3.3 3.9 3.9 0 0 0 4 0 33.7 33.7 0 0 0-4.2 7c-.9 2.1-1 3.7 2 4.9Z"
      style="mix-blend-mode:multiply" />
    <path fill="#caab92"
      d="M98.2 35.3c2.2-1.1.4 7.6-3 11.5s-11.3-1.6-16.7-3c-3.8-1 5.8-.8 10.8-3.3a63.7 63.7 0 0 0 9-5.2ZM56.6 21.2c-3-1.8-5.7 10-5.3 13.6s6.8 3.6 10.2 3.4-1-7.3-2.2-10.3l-2.7-6.7Z"
      opacity=".5" style="mix-blend-mode:multiply" />
    <path fill="#d45f75"
      d="M63 44.2s9.3 6.6 17.1 11.7 9.4 4.9 9.4 4.9a7.9 7.9 0 0 1-1 3.4c-.7 1.2-10.7-5.5-25.5-20ZM36.4 33.5c-.4 4.7 6.4 9.5 15.3 9s8.7-.5 12.1 2.8a12.6 12.6 0 0 0-8.4-1.4c-4.6 1-5 3.5-12.7 1.7s-7-4.8-7-4.8l3-.4s-3-3-2.3-6.9Z"
      style="mix-blend-mode:multiply" />
    <path fill="#fff9bf"
      d="M66.3 45c-.6 1.2 9 7.3 12 7.7s7.2-.5 8-1-9-6.6-11.6-7.2c-1.5-.4-8.4.4-8.4.4ZM50 37.1c-6.2-1-3.1 3.4.1 4.6s11-.1 11.8-.3S50 37.1 50 37.1Z"
      opacity=".5" style="mix-blend-mode:soft-light" />
    <path fill="#d48675"
      d="M100.6 35.2c-.1 3.8-3.1 16.7-10.3 15.6a7.1 7.1 0 0 1-1.1-.4H89a11 11 0 0 0 7-4.1c2.9-3.8 3.8-11.3 4.5-11.1Z"
      style="mix-blend-mode:multiply" />
    <path fill="#fff"
      d="M48.1 50.1c-.4 0-2.5 4-1.7 4.8s4-4.3 1.7-4.8ZM32.9 46.4c-.8-.7-3 3-2.1 3.7s2.8-3.1 2-3.7ZM34.2 65.6c-1.3.1-1.5 3-.6 3.3s1.8-3.3.6-3.3ZM84.7 84.4c-1.1.3-.2-3 .8-3.1s0 3-.8 3.1Z" />
  </g>
</svg>