<svg xmlns="http://www.w3.org/2000/svg" viewBox="0 0 128 128">
  <g style="isolation:isolate">
    <path fill="#4f4a81" d="M23 73.7s40 33 82 26.3L44.1 80.9Z" />
    <path fill="#e94445"
      d="M101.2 84.2s-26 8-48.6-14.3c0 0 23.4-43.3 28.3-42 2 .4 5.4 9 9 19.5a17.7 17.7 0 0 0 3.7 11.4s0 0 .1.1c4 13.1 7.5 25.3 7.5 25.3Z" />
    <path fill="#e60092"
      d="M55.3 69.8C52.8 67 67.8 50 69.8 50.5s18 6.8 22.3 14.4 6.7 15.3 5.5 17.7-26.4 5-42.5-12.8Z"
      opacity=".2" style="mix-blend-mode:multiply" />
    <path fill="#e94445" d="M52.6 70 36 62.7s38-35.8 43.7-35.3-27 42.4-27 42.4Z" />
    <path fill="#9d933e" d="m47.3 77-20.2-6.2 8.8-8 16.7 7.1-5.3 7.1z" />
    <path fill="#758b00" d="m103.8 95.8 1.2 4.2s-39.2 6-60.9-19.1l3.1-3.9s20 22.5 56.5 18.8Z" />
    <path fill="#4f6a00" d="m23 73.7 21.1 7.2 3.2-3.9-20.2-6.2-4.1 2.9z" />
    <path fill="#c7d424" d="M47.3 77s16.8 30 56.5 18.8l-2.6-11.6s-23 7-48.6-14.3Z" />
    <path fill="#e42213" d="M77.6 47.9c-2.8-2-5.4 7.8-4.1 9.8s4.8-2.6 5.2-4.6.4-4.1-1.1-5.2Z" />
    <path fill="#e94445" d="M80.7 74.2c-2-2.3 0-12.2 2.9-13.7S90 72.4 89.5 76s-8.1-1.2-8.8-2Z" />
    <path fill="#d41116"
      d="M93.6 58.8c-.8-.7-5.9-3.4-6-7s2-4.4 2.3-4.5v.1a17.7 17.7 0 0 0 3.7 11.4Z" />
    <path fill="#a85592"
      d="M83.3 61c-2.7 0-3 8-2.3 9.7s5.4 1 7.4 3.4-1-13-5.1-13Zm-6.9-13.2c-.5 0-3.3 4.3-2.7 7s4.4 0 5-2.4-.5-5.2-2.3-4.6Z"
      opacity=".2" style="mix-blend-mode:multiply" />
    <path fill="#ffacff"
      d="M87 43.6c1.1-2.2-5.1-13.4-5.7-14s-4.6 9.4-6.6 12.8 6.2 5 7.8 6.6 4-4.4 4.5-5.4Z"
      opacity=".5" style="mix-blend-mode:soft-light" />
    <path fill="#a85592" d="M70.7 43.6c-2.1 1.6-8.3.4-7.8-1.4s10.6-10.6 13.7-11-2.4 9.8-5.9 12.4Z"
      opacity=".2" style="mix-blend-mode:multiply" />
    <path fill="#ffacff" d="M81.9 31c-1.7-2-4.7 6.5-4 11.3s7 3 8.8 1.8S83.3 32.6 82 31Z"
      opacity=".5" style="mix-blend-mode:soft-light" />
    <path fill="#a85592"
      d="M52.3 65c-5.9 2-9.3-1.6-9.2-5.3s10.7-11.9 14.8-13.4 8-.4 9.3 1S58.5 63 52.2 65Z"
      opacity=".2" style="mix-blend-mode:multiply" />
    <path fill="#ff4a8b"
      d="M79.5 70.4c.4-1 2.4 4.6 6.4 6.2s3.6-2.7 3.6-2.7.4 3-.3 4-7.2-1.7-8.7-2.6-1-4.9-1-4.9ZM73.2 55s-.4 2.2.8 2.5 3.4-1.8 3.4-1.8-1.7 3-3.4 3-.8-3.7-.8-3.7Zm14.4-3.1a6.2 6.2 0 0 0 2.6 4.1c2.2 1.3 2 .8 2 .8l1.4 2a8.8 8.8 0 0 1-6-7Z" />
    <path fill="#59244a" d="M77.3 48.2c-.4-.4-3.2 2-3.6 4.9s1.4 4.3 3.8 2.4.4-6.9-.2-7.3Z" />
    <path fill="#9a2e69"
      d="M77.3 48.2c-1-.3-3.1 3.3-3.2 6s3.4 1.3 3.4 1.3a2.9 2.9 0 0 1-3.2 1.3c-2-.5-1-4.4 0-6s2-2.8 3-2.6Z"
      opacity=".5" style="mix-blend-mode:multiply" />
    <path fill="#cc5931" d="M76.3 48.8c-.2.1 1 .7 1.4.7s0-1-.4-1.3-1 .6-1 .6Z" />
    <path fill="#59244a" d="M84.2 61c-.7-.3-3.5 3.9-3.1 7.8s3.5 5.3 5.9 2-1.9-9.4-2.8-9.8Z" />
    <path fill="#9a2e69"
      d="M84.2 61c-1.4 0-3 5.6-2.1 9.3s4.9.4 4.9.4a4 4 0 0 1-3.7 2.8c-3 .1-2.9-5.4-2.3-8s1.8-4.4 3.2-4.5Z"
      opacity=".5" style="mix-blend-mode:multiply" />
    <path fill="#cc5931" d="M83 62.1c-.1.3 1.8.6 2.2.5s-.4-1.4-1-1.6-1.2 1-1.2 1Z" />
    <path fill="#ffacff"
      d="M92.7 77.3c3 1.6 4.4 2 5.1-.1s-4-15.9-5.1-17.7-6.3-2.6-6.8-4.8 1.8-4.5.3-5.5-5.9.5-6.3-.1.7 3.4-1.2 7-5.8 5.4-7.3 4.2-.7-8-2.5-8-8.3 8.2-9.3 12.4 10.5 10.4 12 11.9S79 62.3 82.3 59.2s6.7 5 8 10.3a59.4 59.4 0 0 0 2.4 7.8Z"
      opacity=".7" style="mix-blend-mode:soft-light" />
    <path fill="#ff84ae"
      d="m89.8 47-5-14.6c-.7-2-2.6-5-4-5.3s-5.6 2.7-6.9 3.2-3.2 2-4.9 3.2l-6 5.2s11.9-9.5 14.7-10 1 2.8 1.2 3.7 2.2-.6 3.4-.7 1.7 1.8 2.8 4.9S89.8 47 89.8 47Z" />
    <path fill="#ff006b"
      d="M100.8 85.4c-1.4.4-2.5 6.7-22.4 1.6C64 83.3 54.9 73.2 51.7 71.2c-2.3-1.4-8.5-1.7-13-3s-4.3-4-4.3-4l1.5-1.4L52.6 70s6.7 6.7 25.7 11.8 23 2 23 2Z"
      opacity=".7" />
    <path fill="#a85592"
      d="M50.5 70.8c1.7 1.2-6.6 8.6-8.5 8.7s-15.4-4-16.5-5 5.6-6.9 8.4-6.6 15.3 2 16.6 3Z"
      opacity=".2" style="mix-blend-mode:multiply" />
    <path fill="#ffd8ff" d="M57.6 86.7c-5.7-6 21.8 2.7 36 4.2s5 8.2-.2 8.8-24-.3-35.8-13Z"
      opacity=".5" style="mix-blend-mode:soft-light" />
    <path fill="#9ad8ff"
      d="M26.6 76.5c-.9-.7 12.9 2.8 17.2 5.6S55.7 92.3 61.5 95a157.6 157.6 0 0 1-34.9-18.5Z"
      opacity=".5" style="mix-blend-mode:soft-light" />
    <path fill="#ff5c75" d="M51.7 71.2S64.4 57 68 51.4s10.8-19 10.8-19Z" />
    <path fill="#fff"
      d="M80.3 30.3c-1-.1-2.2 3.5-2.4 3.9s1.4-1.3 2-2 .4-1.9.4-1.9Zm2.9 8.6c-.6 0-.4 3.3.5 3.8s2-3.7-.5-3.8Z" />
    <path fill="#ffe0ff"
      d="M88.7 60.1c.6-1.6 1.4-2 2-.8s-.5 3-1.3 2.6a1.5 1.5 0 0 1-.7-1.8ZM74 45.7c-.5-1.4 1.6-1.1 2-.3s-1.4 2.5-2 .3Zm-23.4 14c-1 2.3 3.7 2.9 4.6-.7s-3.7-1.2-4.6.7Zm8.8 10.8c-1-1.1 2.7-1.3 2.5-.2s-2 1-2.5.3ZM56 54.8c-1-.1-1 1.8-.2 2s3-1.6.2-2Zm9.7-12.3c-1.3 0-1.6 2.5-.5 2.6s2.3-2.4.5-2.6Z"
      style="mix-blend-mode:soft-light" />
  </g>
</svg>